<?xml version="1.0" standalone="no"?>
<!DOCTYPE svg PUBLIC "-//W3C//DTD SVG 20010904//EN"
 "http://www.w3.org/TR/2001/REC-SVG-20010904/DTD/svg10.dtd">
<svg version="1.0" xmlns="http://www.w3.org/2000/svg"
 width="50px" height="50px" viewBox="0 0 185.000000 198.000000"
 preserveAspectRatio="xMidYMid meet">

<g transform="translate(0.000000,198.000000) scale(0.100000,-0.100000)"
fill="#000000" stroke="none">
<path d="M865 1941 c-84 -39 -722 -412 -751 -440 -17 -16 -34 -43 -38 -61 -8
-42 -8 -847 0 -889 4 -18 19 -44 34 -59 27 -27 724 -434 778 -454 16 -6 39 -8
53 -5 38 10 750 423 785 456 17 16 34 43 38 61 8 42 8 847 0 889 -4 18 -19 44
-34 59 -27 27 -719 431 -773 451 -37 14 -45 14 -92 -8z m465 -241 c201 -116
373 -220 383 -232 16 -19 17 -56 17 -473 0 -417 -1 -454 -17 -473 -10 -11
-182 -116 -383 -233 -438 -255 -400 -245 -565 -148 -60 36 -228 134 -373 218
-144 84 -267 161 -272 171 -6 12 -10 190 -10 468 0 414 1 451 17 470 10 11
171 109 358 218 442 256 404 236 445 231 22 -3 175 -86 400 -217z"/>
<path d="M1173 1163 c9 -2 25 -2 35 0 9 3 1 5 -18 5 -19 0 -27 -2 -17 -5z"/>
<path d="M1420 1120 c-27 -28 -66 -78 -87 -111 l-37 -61 -55 6 c-30 4 -57 8
-59 10 -1 2 15 32 38 67 42 65 51 117 21 127 -10 3 -11 0 -3 -14 12 -22 3 -48
-44 -126 -26 -43 -41 -58 -58 -58 -12 0 -31 -7 -42 -15 -18 -14 -17 -14 9 -4
39 17 44 5 19 -46 -30 -62 -14 -57 21 6 26 48 30 51 59 45 17 -3 43 -6 59 -6
27 0 28 -1 17 -30 -13 -39 -4 -60 24 -59 17 1 18 2 6 6 -10 2 -18 11 -18 19 0
22 29 74 41 74 6 0 7 4 4 10 -7 11 61 114 113 172 50 56 29 47 -28 -12z"/>
<path d="M1076 1130 c-44 -28 -49 -29 -69 -15 -13 9 -40 14 -67 13 l-45 -1 45
-4 c64 -6 70 -14 63 -88 -5 -58 -4 -64 16 -75 12 -6 30 -9 39 -7 12 3 11 5 -5
6 -77 4 -26 134 72 185 17 9 23 16 14 16 -8 0 -36 -14 -63 -30z"/>
<path d="M532 1125 c-76 -23 -141 -75 -173 -137 -25 -49 -24 -74 6 -103 19
-20 33 -25 72 -24 l48 2 -49 6 c-48 7 -76 29 -76 58 0 52 84 148 156 178 20 8
58 15 85 15 38 0 51 -4 63 -22 9 -12 16 -17 16 -10 0 6 -9 21 -20 32 -23 23
-65 25 -128 5z"/>
<path d="M826 1089 c-20 -15 -26 -29 -24 -48 3 -22 12 -29 65 -46 34 -11 68
-26 74 -32 19 -19 -7 -59 -55 -84 -36 -18 -37 -20 -11 -14 41 8 78 37 90 69
13 37 -3 59 -51 70 -98 21 -113 39 -72 83 27 29 19 30 -16 2z"/>
<path d="M564 1055 c1 -15 8 -20 29 -21 24 -1 24 -1 3 3 -14 2 -27 12 -29 21
-3 12 -4 11 -3 -3z"/>
<path d="M565 1003 c-27 -2 -54 -9 -60 -15 -7 -7 12 -8 64 -3 97 9 92 -6 -35
-93 -10 -7 -2 -4 19 7 21 12 40 21 43 21 2 0 -7 -22 -21 -50 -31 -60 -33 -78
-3 -30 88 145 92 150 123 151 27 1 26 2 -10 10 -22 4 -47 7 -55 7 -8 -1 -37
-3 -65 -5z"/>
<path d="M1089 973 c-13 -16 -12 -17 4 -4 9 7 17 15 17 17 0 8 -8 3 -21 -13z"/>
<path d="M687 963 c-4 -3 -7 -18 -7 -33 0 -30 41 -75 62 -67 9 4 7 6 -4 6 -25
1 -51 46 -46 76 6 27 5 29 -5 18z"/>
<path d="M715 940 c11 -52 25 -72 18 -25 -3 22 -10 45 -15 50 -7 7 -8 -2 -3
-25z"/>
<path d="M764 852 c5 -8 76 -4 76 4 0 2 -18 4 -41 4 -22 0 -38 -4 -35 -8z"/>
</g>
</svg>
