<?xml version="1.0" standalone="no"?>
<!DOCTYPE svg PUBLIC "-//W3C//DTD SVG 20010904//EN"
 "http://www.w3.org/TR/2001/REC-SVG-20010904/DTD/svg10.dtd">
<svg version="1.0" xmlns="http://www.w3.org/2000/svg"
 width="71.000000pt" height="79.000000pt" viewBox="0 0 71.000000 79.000000"
 preserveAspectRatio="xMidYMid meet">

<g transform="translate(0.000000,79.000000) scale(0.100000,-0.100000)"
fill="#000000" stroke="none">
<path d="M190 695 c-80 -46 -153 -94 -162 -106 -16 -18 -18 -44 -18 -193 0
-136 3 -176 15 -193 16 -23 305 -193 328 -193 12 0 298 160 324 182 18 15 18
391 0 406 -30 25 -312 182 -326 181 -9 0 -81 -38 -161 -84z m317 -11 c81 -47
154 -91 161 -96 9 -8 12 -56 10 -197 l-3 -186 -80 -48 c-44 -26 -117 -68 -162
-93 l-83 -46 -160 93 -160 93 0 191 0 191 158 92 c86 50 160 92 164 92 4 0 73
-39 155 -86z"/>
<path d="M415 449 c-4 -6 -12 -8 -19 -6 -6 3 -11 -7 -12 -26 -1 -25 0 -27 9
-11 5 11 17 27 25 37 8 9 12 17 9 17 -3 0 -9 -5 -12 -11z"/>
<path d="M481 444 c0 -11 3 -14 6 -6 3 7 2 16 -1 19 -3 4 -6 -2 -5 -13z"/>
<path d="M549 443 c-13 -16 -12 -17 4 -4 16 13 21 21 13 21 -2 0 -10 -8 -17
-17z"/>
<path d="M145 414 c-14 -15 -25 -34 -25 -43 0 -9 7 -3 15 13 9 16 23 35 33 42
9 7 13 14 9 14 -4 0 -19 -12 -32 -26z"/>
<path d="M514 395 c-9 -14 -15 -27 -13 -30 3 -2 12 10 21 26 21 36 15 39 -8 4z"/>
<path d="M212 393 c27 -4 27 -5 12 -29 -23 -34 -12 -30 14 6 l23 30 -38 -1
c-30 -2 -32 -3 -11 -6z"/>
<path d="M343 393 c13 -3 17 -11 13 -25 -3 -15 -2 -18 6 -10 15 15 2 42 -19
41 -17 -1 -17 -2 0 -6z"/>
<path d="M440 369 c-7 -11 -10 -23 -7 -25 2 -2 9 7 15 21 14 30 7 33 -8 4z"/>
<path d="M267 365 c-4 -8 -3 -16 1 -19 4 -3 9 4 9 15 2 23 -3 25 -10 4z"/>
</g>
</svg>
