<?xml version="1.0" encoding="UTF-8"?>
<svg xmlns="http://www.w3.org/2000/svg" xmlns:xlink="http://www.w3.org/1999/xlink" width="100px" height="59px" viewBox="0 0 100 59" version="1.1">
<g id="surface1">
<path style=" stroke:none;fill-rule:nonzero;fill:rgb(0%,0%,0%);fill-opacity:1;" d="M 48.417969 3.769531 C 44.84375 5.6875 34.152344 12.050781 33.566406 12.621094 C 33.214844 12.957031 32.863281 13.527344 32.777344 13.90625 C 32.613281 14.792969 32.613281 31.753906 32.777344 32.640625 C 32.863281 33.019531 33.175781 33.566406 33.484375 33.882812 C 34.089844 34.515625 48.566406 43.027344 49.667969 43.425781 C 50.167969 43.597656 50.5 43.597656 51 43.425781 C 52.097656 43.027344 66.578125 34.515625 67.179688 33.882812 C 67.492188 33.566406 67.800781 33.019531 67.886719 32.640625 C 68.050781 31.753906 68.050781 14.792969 67.886719 13.90625 C 67.800781 13.527344 67.449219 12.957031 67.097656 12.621094 C 66.746094 12.285156 63.605469 10.34375 60.109375 8.300781 C 52.578125 3.875 50.855469 2.949219 50.332031 2.949219 C 50.125 2.949219 49.25 3.308594 48.417969 3.769531 Z M 58.859375 8.429688 C 63.042969 10.875 66.621094 13.0625 66.824219 13.316406 C 67.160156 13.71875 67.179688 14.496094 67.179688 23.285156 C 67.179688 32.070312 67.160156 32.851562 66.824219 33.25 C 66.621094 33.484375 63.042969 35.695312 58.859375 38.160156 C 52.015625 42.207031 51.183594 42.648438 50.332031 42.648438 C 49.5 42.648438 48.628906 42.1875 41.804688 38.160156 C 37.625 35.695312 34.046875 33.484375 33.859375 33.25 C 33.503906 32.851562 33.484375 32.070312 33.484375 23.285156 C 33.484375 14.496094 33.503906 13.71875 33.859375 13.316406 C 34.128906 12.980469 44.738281 6.617188 49.082031 4.171875 C 49.5625 3.898438 50.0625 3.792969 50.542969 3.855469 C 50.980469 3.921875 54.203125 5.6875 58.859375 8.429688 Z M 58.859375 8.429688 "/>
<path style=" stroke:none;fill-rule:nonzero;fill:rgb(0%,0%,0%);fill-opacity:1;" d="M 55.59375 19.746094 C 55.78125 19.785156 56.113281 19.785156 56.324219 19.746094 C 56.511719 19.679688 56.34375 19.640625 55.949219 19.640625 C 55.550781 19.640625 55.386719 19.679688 55.59375 19.746094 Z M 55.59375 19.746094 "/>
<path style=" stroke:none;fill-rule:nonzero;fill:rgb(0%,0%,0%);fill-opacity:1;" d="M 60.730469 20.652344 C 60.171875 21.238281 59.359375 22.273438 58.941406 22.96875 C 58.132812 24.316406 57.882812 24.421875 56.300781 24.042969 L 55.738281 23.917969 L 56.574219 22.546875 C 57.425781 21.136719 57.613281 20.039062 57.011719 19.847656 C 56.800781 19.785156 56.78125 19.847656 56.949219 20.144531 C 57.199219 20.609375 57.011719 21.15625 56.03125 22.796875 C 55.488281 23.703125 55.175781 24.019531 54.824219 24.019531 C 54.574219 24.019531 54.183594 24.167969 53.953125 24.339844 C 53.578125 24.632812 53.597656 24.632812 54.140625 24.421875 C 54.949219 24.0625 55.054688 24.316406 54.535156 25.390625 C 53.910156 26.699219 54.246094 26.59375 54.972656 25.265625 C 55.511719 24.253906 55.59375 24.1875 56.199219 24.316406 C 56.550781 24.378906 57.09375 24.441406 57.425781 24.441406 C 57.988281 24.441406 58.007812 24.464844 57.777344 25.074219 C 57.507812 25.894531 57.695312 26.339844 58.277344 26.316406 C 58.628906 26.296875 58.652344 26.277344 58.402344 26.191406 C 58.195312 26.148438 58.027344 25.960938 58.027344 25.792969 C 58.027344 25.328125 58.628906 24.234375 58.878906 24.234375 C 59.003906 24.234375 59.027344 24.148438 58.964844 24.019531 C 58.816406 23.789062 60.234375 21.621094 61.316406 20.398438 C 62.355469 19.21875 61.917969 19.40625 60.730469 20.652344 Z M 60.730469 20.652344 "/>
<path style=" stroke:none;fill-rule:nonzero;fill:rgb(0%,0%,0%);fill-opacity:1;" d="M 53.578125 20.4375 C 52.660156 21.03125 52.558594 21.050781 52.140625 20.753906 C 51.871094 20.566406 51.308594 20.460938 50.75 20.480469 L 49.8125 20.5 L 50.75 20.585938 C 52.078125 20.714844 52.203125 20.882812 52.058594 22.441406 C 51.953125 23.664062 51.972656 23.789062 52.390625 24.019531 C 52.640625 24.148438 53.015625 24.210938 53.203125 24.167969 C 53.453125 24.105469 53.433594 24.0625 53.097656 24.042969 C 51.496094 23.957031 52.558594 21.21875 54.597656 20.144531 C 54.949219 19.953125 55.074219 19.808594 54.886719 19.808594 C 54.722656 19.808594 54.140625 20.101562 53.578125 20.4375 Z M 53.578125 20.4375 "/>
<path style=" stroke:none;fill-rule:nonzero;fill:rgb(0%,0%,0%);fill-opacity:1;" d="M 42.261719 20.546875 C 40.683594 21.03125 39.332031 22.125 38.667969 23.433594 C 38.144531 24.464844 38.167969 24.988281 38.789062 25.601562 C 39.183594 26.023438 39.472656 26.128906 40.285156 26.109375 L 41.285156 26.066406 L 40.265625 25.9375 C 39.269531 25.792969 38.683594 25.328125 38.683594 24.71875 C 38.683594 23.621094 40.203125 21.808594 41.722656 21.09375 C 42.988281 20.480469 44.59375 20.5 45.007812 21.113281 C 45.195312 21.367188 45.339844 21.472656 45.339844 21.324219 C 45.339844 21.199219 45.152344 20.882812 44.925781 20.652344 C 44.449219 20.164062 43.574219 20.125 42.261719 20.546875 Z M 42.261719 20.546875 "/>
<path style=" stroke:none;fill-rule:nonzero;fill:rgb(0%,0%,0%);fill-opacity:1;" d="M 48.273438 21.367188 C 47.464844 22.25 47.734375 22.796875 49.230469 23.285156 C 49.9375 23.515625 50.644531 23.832031 50.769531 23.957031 C 51.167969 24.359375 50.625 25.203125 49.625 25.730469 C 48.875 26.109375 48.855469 26.148438 49.394531 26.023438 C 50.25 25.855469 51.019531 25.246094 51.269531 24.570312 C 51.539062 23.789062 51.207031 23.328125 50.207031 23.09375 C 48.292969 22.671875 47.902344 22.230469 48.667969 21.367188 C 48.9375 21.09375 49.0625 20.859375 48.9375 20.859375 C 48.832031 20.859375 48.523438 21.09375 48.273438 21.367188 Z M 48.273438 21.367188 "/>
<path style=" stroke:none;fill-rule:nonzero;fill:rgb(0%,0%,0%);fill-opacity:1;" d="M 42.925781 22.019531 C 42.949219 22.335938 43.09375 22.441406 43.53125 22.460938 C 44.03125 22.484375 44.03125 22.484375 43.59375 22.398438 C 43.300781 22.359375 43.03125 22.144531 42.988281 21.957031 C 42.925781 21.703125 42.90625 21.722656 42.925781 22.019531 Z M 42.925781 22.019531 "/>
<path style=" stroke:none;fill-rule:nonzero;fill:rgb(0%,0%,0%);fill-opacity:1;" d="M 42.90625 23.15625 C 41.222656 23.367188 41.308594 23.664062 43.03125 23.515625 C 45.050781 23.304688 44.945312 23.621094 42.304688 25.453125 C 42.097656 25.601562 42.261719 25.539062 42.699219 25.308594 C 43.136719 25.054688 43.53125 24.863281 43.59375 24.863281 C 43.636719 24.863281 43.449219 25.328125 43.15625 25.917969 C 42.511719 27.183594 42.472656 27.5625 43.09375 26.550781 C 44.925781 23.496094 45.007812 23.390625 45.652344 23.367188 C 46.214844 23.347656 46.191406 23.328125 45.445312 23.15625 C 44.511719 22.96875 44.425781 22.96875 42.90625 23.15625 Z M 42.90625 23.15625 "/>
<path style=" stroke:none;fill-rule:nonzero;fill:rgb(0%,0%,0%);fill-opacity:1;" d="M 53.847656 23.75 C 53.578125 24.085938 53.597656 24.105469 53.933594 23.832031 C 54.121094 23.683594 54.285156 23.515625 54.285156 23.472656 C 54.285156 23.304688 54.121094 23.410156 53.847656 23.75 Z M 53.847656 23.75 "/>
<path style=" stroke:none;fill-rule:nonzero;fill:rgb(0%,0%,0%);fill-opacity:1;" d="M 45.488281 23.957031 C 45.175781 24.253906 45.363281 25.246094 45.816406 25.664062 C 46.421875 26.234375 46.902344 26.277344 46.691406 25.75 C 46.589844 25.558594 46.484375 25.074219 46.421875 24.695312 C 46.378906 24.316406 46.253906 23.957031 46.152344 23.894531 C 45.902344 23.75 45.941406 24.1875 46.253906 25.117188 C 46.421875 25.558594 46.464844 25.917969 46.359375 25.917969 C 46.003906 25.917969 45.507812 24.863281 45.589844 24.339844 C 45.714844 23.769531 45.695312 23.726562 45.488281 23.957031 Z M 45.488281 23.957031 "/>
<path style=" stroke:none;fill-rule:nonzero;fill:rgb(0%,0%,0%);fill-opacity:1;" d="M 47.089844 26.296875 C 47.191406 26.464844 48.667969 26.378906 48.667969 26.214844 C 48.667969 26.171875 48.292969 26.128906 47.816406 26.128906 C 47.359375 26.128906 47.027344 26.214844 47.089844 26.296875 Z M 47.089844 26.296875 "/>
<path style=" stroke:none;fill-rule:nonzero;fill:rgb(0%,0%,0%);fill-opacity:1;" d="M 91.683594 37.59375 C 91.222656 37.949219 91.203125 38.308594 91.640625 38.265625 C 92.097656 38.222656 94.761719 44.25 94.386719 44.484375 C 94.238281 44.566406 94.199219 44.714844 94.28125 44.796875 C 94.46875 44.988281 96.109375 44.25 95.964844 44.015625 C 95.921875 43.933594 95.753906 43.890625 95.589844 43.953125 C 95.425781 44.015625 94.84375 42.941406 93.800781 40.667969 C 92.96875 38.8125 92.242188 37.296875 92.160156 37.296875 C 92.097656 37.296875 91.867188 37.441406 91.683594 37.59375 Z M 91.683594 37.59375 "/>
<path style=" stroke:none;fill-rule:nonzero;fill:rgb(0%,0%,0%);fill-opacity:1;" d="M 5.800781 39.253906 C 4.386719 40.226562 3.703125 41.910156 4.140625 43.40625 C 4.617188 45.03125 5.863281 45.976562 7.964844 46.3125 L 9.128906 46.503906 L 9.546875 45.472656 C 9.796875 44.882812 10.089844 44.460938 10.277344 44.460938 C 10.941406 44.460938 10.566406 44.082031 9.359375 43.554688 C 8.503906 43.195312 8.113281 43.089844 8.113281 43.28125 C 8.113281 43.425781 8.339844 43.660156 8.628906 43.785156 C 9.253906 44.082031 9.253906 44.167969 8.734375 45.03125 C 8.441406 45.515625 8.175781 45.722656 7.800781 45.722656 C 6.488281 45.722656 5.238281 44.691406 4.910156 43.363281 C 4.535156 41.785156 5.863281 39.59375 7.386719 39.320312 C 8.421875 39.109375 9.964844 39.867188 10.421875 40.816406 L 10.753906 41.488281 L 11.003906 40.964844 C 11.316406 40.246094 11.066406 39.929688 9.671875 39.277344 C 8.277344 38.601562 6.761719 38.601562 5.800781 39.253906 Z M 5.800781 39.253906 "/>
<path style=" stroke:none;fill-rule:nonzero;fill:rgb(0%,0%,0%);fill-opacity:1;" d="M 89.890625 41.722656 C 88.726562 42.4375 88.480469 43.890625 89.289062 45.113281 C 90.285156 46.609375 92.054688 46.671875 92.949219 45.261719 C 93.488281 44.375 93.324219 44.230469 92.59375 44.945312 C 91.804688 45.703125 90.847656 45.703125 90.140625 44.945312 L 89.621094 44.375 L 91.035156 43.660156 C 91.804688 43.261719 92.492188 42.902344 92.511719 42.878906 C 92.738281 42.671875 92.242188 41.890625 91.722656 41.617188 C 90.933594 41.195312 90.722656 41.214844 89.890625 41.722656 Z M 91.515625 42.25 C 91.824219 42.625 91.746094 42.753906 90.535156 43.40625 C 89.558594 43.953125 89.332031 43.890625 89.515625 43.113281 C 89.785156 42.035156 90.933594 41.53125 91.515625 42.25 Z M 91.515625 42.25 "/>
<path style=" stroke:none;fill-rule:nonzero;fill:rgb(0%,0%,0%);fill-opacity:1;" d="M 85.585938 42.394531 C 85.503906 42.605469 85.484375 42.921875 85.546875 43.089844 C 85.628906 43.261719 85.585938 43.449219 85.484375 43.511719 C 85.171875 43.703125 85.234375 44.101562 85.546875 43.976562 C 85.753906 43.890625 85.980469 44.292969 86.316406 45.21875 C 86.855469 46.800781 87.4375 47.621094 87.980469 47.621094 C 88.457031 47.621094 89.597656 46.671875 89.394531 46.441406 C 89.289062 46.359375 89.058594 46.441406 88.851562 46.628906 C 88.355469 47.09375 88.125 47.074219 87.730469 46.609375 C 87.332031 46.144531 86.480469 43.847656 86.625 43.617188 C 86.6875 43.511719 87.019531 43.386719 87.355469 43.300781 C 87.957031 43.175781 88.125 42.984375 87.855469 42.734375 C 87.792969 42.648438 87.417969 42.734375 87.019531 42.902344 C 86.625 43.070312 86.316406 43.132812 86.316406 43.027344 C 86.316406 42.941406 86.191406 42.671875 86.023438 42.4375 C 85.730469 42.058594 85.710938 42.058594 85.585938 42.394531 Z M 85.585938 42.394531 "/>
<path style=" stroke:none;fill-rule:nonzero;fill:rgb(0%,0%,0%);fill-opacity:1;" d="M 11.644531 43.386719 C 11.644531 43.492188 11.75 43.617188 11.894531 43.660156 C 12.0625 43.722656 11.957031 44.269531 11.542969 45.472656 C 11.148438 46.652344 10.855469 47.179688 10.667969 47.113281 C 10.527344 47.050781 10.359375 47.09375 10.316406 47.179688 C 10.191406 47.371094 11.75 48.042969 12.269531 48.042969 C 12.480469 48.042969 12.417969 47.917969 12.105469 47.664062 L 11.625 47.285156 L 12.0625 46.105469 C 12.375 45.324219 12.6875 44.859375 13.019531 44.691406 C 13.769531 44.355469 14.496094 44.417969 14.640625 44.816406 C 14.765625 45.136719 14.808594 45.136719 14.972656 44.882812 C 15.515625 44.015625 14.683594 43.597656 13.4375 44.125 C 13.019531 44.292969 12.6875 44.398438 12.6875 44.355469 C 12.6875 44.3125 12.769531 44.039062 12.894531 43.746094 C 13.082031 43.21875 13.0625 43.195312 12.375 43.195312 C 11.980469 43.195312 11.644531 43.28125 11.644531 43.386719 Z M 11.644531 43.386719 "/>
<path style=" stroke:none;fill-rule:nonzero;fill:rgb(0%,0%,0%);fill-opacity:1;" d="M 77.265625 43.492188 C 76.433594 43.765625 76.433594 43.765625 76.972656 43.996094 C 77.390625 44.167969 77.558594 44.4375 77.765625 45.410156 C 77.910156 46.0625 77.996094 46.628906 77.953125 46.671875 C 77.828125 46.800781 74.75 47.621094 74.417969 47.621094 C 74 47.621094 73.417969 45.050781 73.792969 44.921875 C 74.125 44.816406 74.105469 44.460938 73.792969 44.460938 C 73.648438 44.460938 73.167969 44.566406 72.753906 44.691406 C 71.941406 44.902344 71.671875 45.304688 72.339844 45.304688 C 72.652344 45.304688 72.859375 45.828125 73.480469 48.296875 C 74.167969 51.058594 74.207031 51.289062 73.875 51.542969 C 73.273438 51.984375 73.667969 52.027344 74.875 51.625 C 75.957031 51.265625 76.042969 51.160156 75.3125 51.121094 C 75.125 51.097656 74.875 50.570312 74.644531 49.6875 L 74.292969 48.253906 L 75.167969 48.019531 C 75.625 47.894531 76.476562 47.664062 77.035156 47.496094 C 78.246094 47.15625 78.285156 47.179688 78.660156 48.863281 C 78.871094 49.855469 78.871094 50.023438 78.558594 50.253906 C 78.015625 50.65625 78.347656 50.761719 79.386719 50.488281 C 80.34375 50.234375 80.886719 49.75 80.136719 49.8125 C 79.824219 49.832031 79.636719 49.328125 78.996094 46.820312 C 78.371094 44.332031 78.285156 43.785156 78.535156 43.683594 C 78.953125 43.53125 78.890625 43.195312 78.472656 43.21875 C 78.265625 43.21875 77.722656 43.34375 77.265625 43.492188 Z M 77.265625 43.492188 "/>
<path style=" stroke:none;fill-rule:nonzero;fill:rgb(0%,0%,0%);fill-opacity:1;" d="M 82.113281 44.585938 C 80.15625 45.429688 80.363281 48.65625 82.40625 49.179688 C 83.359375 49.410156 84.152344 49.203125 84.753906 48.546875 C 85.359375 47.894531 85.484375 47.199219 85.234375 46.144531 C 84.839844 44.609375 83.546875 43.953125 82.113281 44.585938 Z M 83.628906 45.09375 C 84.589844 45.621094 84.984375 47.664062 84.253906 48.339844 C 83.609375 48.925781 82.570312 48.84375 82.03125 48.148438 C 80.65625 46.421875 81.84375 44.144531 83.628906 45.09375 Z M 83.628906 45.09375 "/>
<path style=" stroke:none;fill-rule:nonzero;fill:rgb(0%,0%,0%);fill-opacity:1;" d="M 15.660156 44.816406 C 15.078125 45.050781 15.433594 45.261719 16.328125 45.261719 C 17.511719 45.238281 17.761719 45.472656 17.59375 46.441406 L 17.449219 47.199219 L 16.035156 47.074219 C 14.703125 46.949219 14.578125 46.96875 14.351562 47.410156 C 13.808594 48.441406 14.640625 49.453125 15.910156 49.246094 C 16.410156 49.160156 16.621094 49.222656 16.804688 49.539062 C 17.074219 49.960938 18.300781 50.109375 18.300781 49.730469 C 18.300781 49.601562 18.175781 49.515625 18.011719 49.515625 C 17.472656 49.515625 17.472656 49.179688 17.988281 47.535156 C 18.53125 45.789062 18.488281 45.324219 17.675781 44.882812 C 17.285156 44.671875 16.121094 44.628906 15.660156 44.816406 Z M 16.867188 47.578125 C 17.117188 47.683594 17.160156 47.855469 17.054688 48.171875 C 16.847656 48.71875 15.953125 48.992188 15.390625 48.675781 C 14.996094 48.464844 14.828125 47.832031 15.121094 47.558594 C 15.285156 47.371094 16.433594 47.390625 16.867188 47.578125 Z M 16.867188 47.578125 "/>
<path style=" stroke:none;fill-rule:nonzero;fill:rgb(0%,0%,0%);fill-opacity:1;" d="M 28.765625 45.175781 C 29.078125 45.429688 29.121094 45.640625 29.015625 46.398438 C 28.808594 47.726562 28.683594 47.894531 27.996094 47.621094 C 26.644531 47.113281 25.394531 47.640625 24.832031 49.011719 C 24.355469 50.152344 24.457031 50.953125 25.167969 51.667969 C 25.75 52.257812 25.917969 52.296875 26.832031 52.214844 C 27.558594 52.128906 27.871094 52.191406 27.953125 52.40625 C 28.078125 52.71875 29.324219 52.785156 29.324219 52.46875 C 29.324219 52.34375 29.183594 52.257812 29.015625 52.257812 C 28.578125 52.257812 28.621094 51.6875 29.324219 48.402344 C 29.679688 46.800781 29.949219 45.367188 29.949219 45.199219 C 29.949219 44.96875 29.722656 44.882812 29.183594 44.882812 C 28.453125 44.902344 28.433594 44.921875 28.765625 45.175781 Z M 27.621094 48.0625 C 28.453125 48.359375 28.558594 48.738281 28.222656 50.253906 C 27.972656 51.328125 27.871094 51.519531 27.347656 51.644531 C 26.683594 51.835938 25.707031 51.4375 25.5 50.886719 C 25.144531 49.917969 25.667969 48.378906 26.476562 48.042969 C 26.726562 47.9375 26.933594 47.855469 26.953125 47.855469 C 26.972656 47.832031 27.265625 47.9375 27.621094 48.0625 Z M 27.621094 48.0625 "/>
<path style=" stroke:none;fill-rule:nonzero;fill:rgb(0%,0%,0%);fill-opacity:1;" d="M 19.761719 46.125 C 19.761719 46.230469 19.863281 46.359375 19.988281 46.398438 C 20.152344 46.464844 20.152344 46.714844 20.007812 47.304688 C 19.886719 47.769531 19.675781 48.546875 19.550781 49.03125 C 19.425781 49.582031 19.199219 49.9375 19.03125 49.9375 C 18.40625 49.9375 18.738281 50.277344 19.59375 50.507812 C 20.527344 50.761719 20.921875 50.675781 20.339844 50.339844 C 20.027344 50.171875 20.027344 50.046875 20.382812 48.695312 C 20.570312 47.894531 20.816406 47.136719 20.878906 47.011719 C 21.089844 46.671875 22.296875 46.714844 22.777344 47.074219 C 23.167969 47.371094 23.167969 47.390625 22.777344 48.992188 C 22.484375 50.214844 22.277344 50.65625 21.964844 50.78125 C 21.484375 50.972656 21.464844 50.953125 22.839844 51.390625 C 23.523438 51.605469 23.691406 51.476562 23.273438 51.058594 C 23.085938 50.867188 23.105469 50.488281 23.378906 49.515625 C 24.082031 46.96875 23.816406 46.359375 22.003906 46.359375 C 21.464844 46.359375 21.003906 46.25 21.003906 46.144531 C 21.003906 46.019531 20.734375 45.9375 20.382812 45.9375 C 20.050781 45.9375 19.761719 46.019531 19.761719 46.125 Z M 19.761719 46.125 "/>
<path style=" stroke:none;fill-rule:nonzero;fill:rgb(0%,0%,0%);fill-opacity:1;" d="M 35.027344 46.652344 C 34.253906 46.988281 33.816406 48 34.089844 48.738281 C 34.277344 49.222656 34.921875 49.855469 36.480469 51.058594 C 37.3125 51.707031 37.457031 52.40625 36.855469 52.953125 C 35.960938 53.773438 33.902344 53.035156 33.902344 51.921875 C 33.902344 51.183594 33.566406 51.308594 33.402344 52.089844 C 33.234375 52.910156 33.691406 53.394531 34.964844 53.734375 C 36.582031 54.175781 38.0625 53.351562 38.0625 51.984375 C 38.0625 51.160156 37.5625 50.464844 36.394531 49.75 C 35.835938 49.390625 35.214844 48.863281 35.027344 48.570312 C 34.714844 48.085938 34.714844 48 35.027344 47.515625 C 35.667969 46.527344 37.644531 46.988281 37.644531 48.105469 C 37.644531 48.296875 37.75 48.464844 37.855469 48.464844 C 37.980469 48.464844 38.0625 48.339844 38.0625 48.191406 C 38.0625 48.0625 38.125 47.726562 38.1875 47.496094 C 38.292969 47.113281 38.167969 46.988281 37.3125 46.695312 C 36.128906 46.292969 35.878906 46.292969 35.027344 46.652344 Z M 35.027344 46.652344 "/>
<path style=" stroke:none;fill-rule:nonzero;fill:rgb(0%,0%,0%);fill-opacity:1;" d="M 58.070312 47.453125 C 58.113281 47.726562 58.277344 47.9375 58.441406 47.9375 C 58.609375 47.9375 58.777344 47.726562 58.816406 47.453125 C 58.878906 47.09375 58.777344 46.988281 58.441406 46.988281 C 58.113281 46.988281 58.007812 47.09375 58.070312 47.453125 Z M 58.070312 47.453125 "/>
<path style=" stroke:none;fill-rule:nonzero;fill:rgb(0%,0%,0%);fill-opacity:1;" d="M 66.246094 48.546875 C 65.515625 48.863281 64.996094 49.433594 65.265625 49.601562 C 65.390625 49.664062 65.578125 49.582031 65.722656 49.433594 C 65.847656 49.265625 66.246094 49.054688 66.597656 48.96875 C 67.367188 48.800781 67.800781 49.246094 67.800781 50.171875 C 67.800781 50.65625 67.699219 50.738281 67.035156 50.84375 C 65.558594 51.097656 64.972656 51.878906 65.515625 52.910156 C 65.808594 53.4375 66.972656 53.4375 67.613281 52.910156 C 68.011719 52.574219 68.136719 52.574219 68.386719 52.804688 C 68.761719 53.183594 68.90625 53.183594 69.488281 52.679688 L 69.988281 52.277344 L 69.425781 52.257812 C 68.90625 52.257812 68.863281 52.171875 68.636719 50.71875 C 68.238281 48.316406 67.761719 47.875 66.246094 48.546875 Z M 68.011719 51.605469 C 68.011719 52.066406 67.863281 52.277344 67.347656 52.53125 C 66.640625 52.890625 66.246094 52.828125 66.058594 52.320312 C 65.890625 51.878906 66.078125 51.625 66.847656 51.289062 C 67.800781 50.867188 68.011719 50.929688 68.011719 51.605469 Z M 68.011719 51.605469 "/>
<path style=" stroke:none;fill-rule:nonzero;fill:rgb(0%,0%,0%);fill-opacity:1;" d="M 63.019531 49.011719 C 62.855469 49.03125 62.167969 49.140625 61.519531 49.203125 C 60.527344 49.308594 60.316406 49.410156 60.316406 49.75 C 60.316406 49.960938 60.421875 50.152344 60.527344 50.152344 C 60.648438 50.152344 60.730469 50.066406 60.730469 49.9375 C 60.730469 49.730469 61.980469 49.433594 62.480469 49.5625 C 62.730469 49.601562 62.582031 50.046875 61.667969 51.707031 C 61.042969 52.847656 60.566406 53.839844 60.605469 53.921875 C 60.667969 54.003906 61.5 53.964844 62.457031 53.859375 C 64.082031 53.6875 64.246094 53.625 64.332031 53.164062 C 64.433594 52.613281 64.308594 52.550781 63.976562 52.996094 C 63.851562 53.164062 63.25 53.351562 62.625 53.4375 L 61.519531 53.585938 L 61.769531 53.078125 C 61.917969 52.804688 62.457031 51.835938 62.9375 50.953125 C 64.101562 48.886719 64.101562 48.761719 63.019531 49.011719 Z M 63.019531 49.011719 "/>
<path style=" stroke:none;fill-rule:nonzero;fill:rgb(0%,0%,0%);fill-opacity:1;" d="M 58.234375 49.664062 C 57.570312 49.960938 57.550781 50 57.945312 50.152344 C 58.316406 50.296875 58.402344 50.570312 58.527344 51.984375 C 58.628906 53.394531 58.609375 53.667969 58.296875 53.878906 C 57.777344 54.28125 58.027344 54.363281 59.171875 54.175781 C 59.984375 54.027344 60.109375 53.964844 59.777344 53.839844 C 59.378906 53.710938 59.316406 53.457031 59.152344 51.519531 L 58.964844 49.347656 Z M 58.234375 49.664062 "/>
<path style=" stroke:none;fill-rule:nonzero;fill:rgb(0%,0%,0%);fill-opacity:1;" d="M 40.015625 49.917969 C 39.351562 50.316406 38.894531 51.265625 38.894531 52.191406 C 38.894531 53.394531 39.890625 54.363281 41.097656 54.363281 C 41.578125 54.363281 42.84375 53.839844 42.84375 53.625 C 42.84375 53.585938 42.347656 53.605469 41.746094 53.667969 C 40.703125 53.773438 40.597656 53.734375 40.183594 53.203125 C 39.289062 52.066406 39.765625 50.359375 41.058594 50.023438 C 41.597656 49.898438 42.429688 50.234375 42.429688 50.59375 C 42.429688 50.71875 42.535156 50.738281 42.636719 50.675781 C 42.96875 50.464844 42.886719 49.792969 42.511719 49.644531 C 41.867188 49.390625 40.640625 49.515625 40.015625 49.917969 Z M 40.015625 49.917969 "/>
<path style=" stroke:none;fill-rule:nonzero;fill:rgb(0%,0%,0%);fill-opacity:1;" d="M 55.800781 50.191406 L 55.113281 50.886719 L 55.113281 50.277344 C 55.113281 49.730469 55.074219 49.6875 54.554688 49.832031 C 53.871094 50 53.433594 50.359375 53.910156 50.359375 C 54.324219 50.359375 54.492188 50.972656 54.492188 52.71875 C 54.492188 53.859375 54.429688 54.152344 54.183594 54.152344 C 54.015625 54.152344 53.871094 54.238281 53.871094 54.363281 C 53.871094 54.617188 55.238281 54.617188 55.84375 54.386719 C 56.261719 54.21875 56.261719 54.21875 55.824219 54.070312 C 55.34375 53.921875 55.113281 53.203125 55.113281 51.921875 C 55.113281 51.015625 55.988281 50.277344 56.84375 50.445312 C 57.363281 50.550781 57.425781 50.507812 57.363281 50.085938 C 57.261719 49.371094 56.574219 49.410156 55.800781 50.191406 Z M 55.800781 50.191406 "/>
<path style=" stroke:none;fill-rule:nonzero;fill:rgb(0%,0%,0%);fill-opacity:1;" d="M 44.550781 50.046875 C 44.175781 50.214844 43.90625 50.445312 43.988281 50.570312 C 44.074219 50.71875 44.261719 50.71875 44.53125 50.550781 C 44.761719 50.445312 45.238281 50.359375 45.613281 50.402344 C 46.234375 50.464844 46.277344 50.53125 46.339844 51.351562 L 46.402344 52.257812 L 45.464844 52.257812 C 44.261719 52.257812 43.886719 52.40625 43.65625 53.058594 C 43.199219 54.257812 44.738281 55.078125 45.921875 54.238281 C 46.316406 53.964844 46.378906 53.964844 46.378906 54.238281 C 46.378906 54.679688 47.109375 54.847656 47.671875 54.554688 L 48.148438 54.28125 L 47.628906 54.152344 C 47.128906 54.027344 47.109375 53.984375 47.191406 52.320312 C 47.253906 50.800781 47.214844 50.570312 46.816406 50.171875 C 46.316406 49.664062 45.527344 49.625 44.550781 50.046875 Z M 46.339844 53.035156 C 46.296875 53.4375 46.089844 53.710938 45.675781 53.921875 C 44.925781 54.28125 44.40625 54.027344 44.40625 53.289062 C 44.40625 52.867188 44.53125 52.761719 45.132812 52.65625 C 46.402344 52.425781 46.421875 52.425781 46.339844 53.035156 Z M 46.339844 53.035156 "/>
<path style=" stroke:none;fill-rule:nonzero;fill:rgb(0%,0%,0%);fill-opacity:1;" d="M 48.832031 49.980469 C 48.210938 50.191406 48.046875 50.570312 48.566406 50.570312 C 48.816406 50.570312 48.875 50.90625 48.875 52.257812 C 48.875 53.667969 48.9375 54.003906 49.292969 54.363281 C 49.792969 54.871094 50.355469 54.890625 51.183594 54.46875 C 51.746094 54.175781 51.832031 54.175781 52.121094 54.46875 C 52.496094 54.847656 52.515625 54.847656 53.097656 54.554688 L 53.535156 54.300781 L 53.078125 54.132812 C 52.640625 53.964844 52.621094 53.839844 52.621094 51.835938 L 52.621094 49.730469 L 52.058594 49.855469 C 51.726562 49.9375 51.414062 50.046875 51.332031 50.085938 C 51.0625 50.234375 51.144531 50.570312 51.457031 50.570312 C 51.644531 50.570312 51.769531 51.015625 51.871094 51.984375 C 51.996094 53.289062 51.972656 53.4375 51.558594 53.773438 C 51.042969 54.21875 50.019531 54.28125 49.769531 53.878906 C 49.6875 53.753906 49.5625 52.761719 49.5 51.707031 L 49.394531 49.792969 Z M 48.832031 49.980469 "/>
</g>
</svg>
