<?xml version="1.0" encoding="UTF-8"?>
<svg xmlns="http://www.w3.org/2000/svg" xmlns:xlink="http://www.w3.org/1999/xlink" width="300px" height="175px"  viewBox="0 0 300 175" version="1.1">
<g id="surface1">
<path style=" stroke:none;fill-rule:nonzero;fill:rgb(0%,0%,0%);fill-opacity:1;" d="M 145.257812 11.1875 C 134.527344 16.875 102.453125 35.75 100.707031 37.4375 C 99.644531 38.4375 98.585938 40.125 98.335938 41.25 C 97.835938 43.875 97.835938 94.1875 98.335938 96.8125 C 98.585938 97.9375 99.523438 99.5625 100.457031 100.5 C 102.265625 102.375 145.695312 127.625 149 128.8125 C 150.5 129.3125 151.496094 129.3125 152.996094 128.8125 C 156.300781 127.625 199.730469 102.375 201.539062 100.5 C 202.476562 99.5625 203.410156 97.9375 203.660156 96.8125 C 204.160156 94.1875 204.160156 43.875 203.660156 41.25 C 203.410156 40.125 202.351562 38.4375 201.289062 37.4375 C 200.230469 36.4375 190.808594 30.6875 180.324219 24.625 C 157.738281 11.5 152.558594 8.75 151 8.75 C 150.375 8.75 147.753906 9.8125 145.257812 11.1875 Z M 176.582031 25 C 189.121094 32.25 199.855469 38.75 200.476562 39.5 C 201.476562 40.6875 201.539062 43 201.539062 69.0625 C 201.539062 95.125 201.476562 97.4375 200.476562 98.625 C 199.855469 99.3125 189.121094 105.875 176.582031 113.1875 C 156.050781 125.1875 153.554688 126.5 151 126.5 C 148.503906 126.5 145.882812 125.125 125.414062 113.1875 C 112.875 105.875 102.140625 99.3125 101.582031 98.625 C 100.519531 97.4375 100.457031 95.125 100.457031 69.0625 C 100.457031 43 100.519531 40.6875 101.582031 39.5 C 102.390625 38.5 134.214844 19.625 147.253906 12.375 C 148.691406 11.5625 150.1875 11.25 151.621094 11.4375 C 152.933594 11.625 162.605469 16.875 176.582031 25 Z M 176.582031 25 "/>
<path style=" stroke:none;fill-rule:nonzero;fill:rgb(0%,0%,0%);fill-opacity:1;" d="M 166.785156 58.5625 C 167.347656 58.6875 168.34375 58.6875 168.96875 58.5625 C 169.53125 58.375 169.03125 58.25 167.84375 58.25 C 166.660156 58.25 166.160156 58.375 166.785156 58.5625 Z M 166.785156 58.5625 "/>
<path style=" stroke:none;fill-rule:nonzero;fill:rgb(0%,0%,0%);fill-opacity:1;" d="M 182.195312 61.25 C 180.511719 63 178.078125 66.0625 176.832031 68.125 C 174.398438 72.125 173.648438 72.4375 168.90625 71.3125 L 167.222656 70.9375 L 169.71875 66.875 C 172.273438 62.6875 172.835938 59.4375 171.027344 58.875 C 170.402344 58.6875 170.339844 58.875 170.839844 59.75 C 171.589844 61.125 171.027344 62.75 168.09375 67.625 C 166.472656 70.3125 165.535156 71.25 164.476562 71.25 C 163.726562 71.25 162.542969 71.6875 161.855469 72.1875 C 160.730469 73.0625 160.792969 73.0625 162.417969 72.4375 C 164.851562 71.375 165.164062 72.125 163.601562 75.3125 C 161.730469 79.1875 162.730469 78.875 164.914062 74.9375 C 166.535156 71.9375 166.785156 71.75 168.59375 72.125 C 169.65625 72.3125 171.277344 72.5 172.273438 72.5 C 173.960938 72.5 174.023438 72.5625 173.335938 74.375 C 172.523438 76.8125 173.085938 78.125 174.832031 78.0625 C 175.894531 78 175.957031 77.9375 175.207031 77.6875 C 174.585938 77.5625 174.085938 77 174.085938 76.5 C 174.085938 75.125 175.894531 71.875 176.644531 71.875 C 177.015625 71.875 177.078125 71.625 176.894531 71.25 C 176.457031 70.5625 180.699219 64.125 183.945312 60.5 C 187.0625 57 185.753906 57.5625 182.195312 61.25 Z M 182.195312 61.25 "/>
<path style=" stroke:none;fill-rule:nonzero;fill:rgb(0%,0%,0%);fill-opacity:1;" d="M 160.730469 60.625 C 157.988281 62.375 157.675781 62.4375 156.425781 61.5625 C 155.617188 61 153.929688 60.6875 152.246094 60.75 L 149.4375 60.8125 L 152.246094 61.0625 C 156.238281 61.4375 156.613281 61.9375 156.175781 66.5625 C 155.863281 70.1875 155.925781 70.5625 157.175781 71.25 C 157.925781 71.625 159.046875 71.8125 159.609375 71.6875 C 160.359375 71.5 160.296875 71.375 159.296875 71.3125 C 154.492188 71.0625 157.675781 62.9375 163.789062 59.75 C 164.851562 59.1875 165.226562 58.75 164.664062 58.75 C 164.164062 58.75 162.417969 59.625 160.730469 60.625 Z M 160.730469 60.625 "/>
<path style=" stroke:none;fill-rule:nonzero;fill:rgb(0%,0%,0%);fill-opacity:1;" d="M 126.789062 60.9375 C 122.046875 62.375 117.992188 65.625 115.996094 69.5 C 114.433594 72.5625 114.496094 74.125 116.367188 75.9375 C 117.554688 77.1875 118.425781 77.5 120.859375 77.4375 L 123.855469 77.3125 L 120.796875 76.9375 C 117.804688 76.5 116.054688 75.125 116.054688 73.3125 C 116.054688 70.0625 120.613281 64.6875 125.167969 62.5625 C 128.972656 60.75 133.777344 60.8125 135.023438 62.625 C 135.585938 63.375 136.023438 63.6875 136.023438 63.25 C 136.023438 62.875 135.460938 61.9375 134.773438 61.25 C 133.339844 59.8125 130.71875 59.6875 126.789062 60.9375 Z M 126.789062 60.9375 "/>
<path style=" stroke:none;fill-rule:nonzero;fill:rgb(0%,0%,0%);fill-opacity:1;" d="M 144.820312 63.375 C 142.386719 66 143.199219 67.625 147.691406 69.0625 C 149.8125 69.75 151.933594 70.6875 152.308594 71.0625 C 153.496094 72.25 151.871094 74.75 148.875 76.3125 C 146.628906 77.4375 146.566406 77.5625 148.191406 77.1875 C 150.75 76.6875 153.058594 74.875 153.804688 72.875 C 154.617188 70.5625 153.617188 69.1875 150.625 68.5 C 144.882812 67.25 143.699219 65.9375 146.007812 63.375 C 146.816406 62.5625 147.191406 61.875 146.816406 61.875 C 146.503906 61.875 145.570312 62.5625 144.820312 63.375 Z M 144.820312 63.375 "/>
<path style=" stroke:none;fill-rule:nonzero;fill:rgb(0%,0%,0%);fill-opacity:1;" d="M 128.785156 65.3125 C 128.847656 66.25 129.285156 66.5625 130.59375 66.625 C 132.09375 66.6875 132.09375 66.6875 130.78125 66.4375 C 129.910156 66.3125 129.097656 65.6875 128.972656 65.125 C 128.785156 64.375 128.722656 64.4375 128.785156 65.3125 Z M 128.785156 65.3125 "/>
<path style=" stroke:none;fill-rule:nonzero;fill:rgb(0%,0%,0%);fill-opacity:1;" d="M 128.722656 68.6875 C 123.667969 69.3125 123.917969 70.1875 129.097656 69.75 C 135.148438 69.125 134.835938 70.0625 126.914062 75.5 C 126.289062 75.9375 126.789062 75.75 128.097656 75.0625 C 129.410156 74.3125 130.59375 73.75 130.78125 73.75 C 130.90625 73.75 130.34375 75.125 129.472656 76.875 C 127.539062 80.625 127.414062 81.75 129.285156 78.75 C 134.773438 69.6875 135.023438 69.375 136.960938 69.3125 C 138.644531 69.25 138.582031 69.1875 136.335938 68.6875 C 133.527344 68.125 133.277344 68.125 128.722656 68.6875 Z M 128.722656 68.6875 "/>
<path style=" stroke:none;fill-rule:nonzero;fill:rgb(0%,0%,0%);fill-opacity:1;" d="M 161.542969 70.4375 C 160.730469 71.4375 160.792969 71.5 161.792969 70.6875 C 162.355469 70.25 162.855469 69.75 162.855469 69.625 C 162.855469 69.125 162.355469 69.4375 161.542969 70.4375 Z M 161.542969 70.4375 "/>
<path style=" stroke:none;fill-rule:nonzero;fill:rgb(0%,0%,0%);fill-opacity:1;" d="M 136.460938 71.0625 C 135.523438 71.9375 136.085938 74.875 137.457031 76.125 C 139.269531 77.8125 140.703125 77.9375 140.078125 76.375 C 139.765625 75.8125 139.453125 74.375 139.269531 73.25 C 139.144531 72.125 138.769531 71.0625 138.457031 70.875 C 137.707031 70.4375 137.832031 71.75 138.769531 74.5 C 139.269531 75.8125 139.394531 76.875 139.082031 76.875 C 138.019531 76.875 136.523438 73.75 136.773438 72.1875 C 137.144531 70.5 137.085938 70.375 136.460938 71.0625 Z M 136.460938 71.0625 "/>
<path style=" stroke:none;fill-rule:nonzero;fill:rgb(0%,0%,0%);fill-opacity:1;" d="M 141.265625 78 C 141.578125 78.5 146.007812 78.25 146.007812 77.75 C 146.007812 77.625 144.882812 77.5 143.449219 77.5 C 142.074219 77.5 141.078125 77.75 141.265625 78 Z M 141.265625 78 "/>
<path style=" stroke:none;fill-rule:nonzero;fill:rgb(0%,0%,0%);fill-opacity:1;" d="M 275.042969 111.5 C 273.667969 112.5625 273.605469 113.625 274.917969 113.5 C 276.289062 113.375 284.277344 131.25 283.152344 131.9375 C 282.714844 132.1875 282.589844 132.625 282.839844 132.875 C 283.402344 133.4375 288.332031 131.25 287.894531 130.5625 C 287.769531 130.3125 287.269531 130.1875 286.773438 130.375 C 286.273438 130.5625 284.527344 127.375 281.40625 120.625 C 278.910156 115.125 276.726562 110.625 276.476562 110.625 C 276.289062 110.625 275.601562 111.0625 275.042969 111.5 Z M 275.042969 111.5 "/>
<path style=" stroke:none;fill-rule:nonzero;fill:rgb(0%,0%,0%);fill-opacity:1;" d="M 17.410156 116.4375 C 13.164062 119.3125 11.105469 124.3125 12.417969 128.75 C 13.851562 133.5625 17.59375 136.375 23.898438 137.375 L 27.390625 137.9375 L 28.640625 134.875 C 29.386719 133.125 30.261719 131.875 30.824219 131.875 C 32.820312 131.875 31.695312 130.75 28.078125 129.1875 C 25.519531 128.125 24.335938 127.8125 24.335938 128.375 C 24.335938 128.8125 25.019531 129.5 25.894531 129.875 C 27.765625 130.75 27.765625 131 26.207031 133.5625 C 25.332031 135 24.523438 135.625 23.398438 135.625 C 19.46875 135.625 15.722656 132.5625 14.726562 128.625 C 13.601562 123.9375 17.59375 117.4375 22.152344 116.625 C 25.269531 116 29.886719 118.25 31.261719 121.0625 L 32.257812 123.0625 L 33.007812 121.5 C 33.945312 119.375 33.195312 118.4375 29.015625 116.5 C 24.832031 114.5 20.277344 114.5 17.410156 116.4375 Z M 17.410156 116.4375 "/>
<path style=" stroke:none;fill-rule:nonzero;fill:rgb(0%,0%,0%);fill-opacity:1;" d="M 269.675781 123.75 C 266.179688 125.875 265.433594 130.1875 267.867188 133.8125 C 270.859375 138.25 276.164062 138.4375 278.847656 134.25 C 280.46875 131.625 279.972656 131.1875 277.785156 133.3125 C 275.414062 135.5625 272.546875 135.5625 270.425781 133.3125 L 268.863281 131.625 L 273.105469 129.5 C 275.414062 128.3125 277.476562 127.25 277.539062 127.1875 C 278.222656 126.5625 276.726562 124.25 275.167969 123.4375 C 272.796875 122.1875 272.171875 122.25 269.675781 123.75 Z M 274.542969 125.3125 C 275.476562 126.4375 275.230469 126.8125 271.609375 128.75 C 268.675781 130.375 267.992188 130.1875 268.550781 127.875 C 269.363281 124.6875 272.796875 123.1875 274.542969 125.3125 Z M 274.542969 125.3125 "/>
<path style=" stroke:none;fill-rule:nonzero;fill:rgb(0%,0%,0%);fill-opacity:1;" d="M 256.757812 125.75 C 256.511719 126.375 256.449219 127.3125 256.636719 127.8125 C 256.882812 128.3125 256.757812 128.875 256.449219 129.0625 C 255.511719 129.625 255.699219 130.8125 256.636719 130.4375 C 257.257812 130.1875 257.945312 131.375 258.945312 134.125 C 260.566406 138.8125 262.3125 141.25 263.933594 141.25 C 265.371094 141.25 268.800781 138.4375 268.179688 137.75 C 267.867188 137.5 267.179688 137.75 266.554688 138.3125 C 265.058594 139.6875 264.371094 139.625 263.1875 138.25 C 262 136.875 259.441406 130.0625 259.878906 129.375 C 260.066406 129.0625 261.066406 128.6875 262.0625 128.4375 C 263.871094 128.0625 264.371094 127.5 263.5625 126.75 C 263.375 126.5 262.25 126.75 261.066406 127.25 C 259.878906 127.75 258.945312 127.9375 258.945312 127.625 C 258.945312 127.375 258.570312 126.5625 258.070312 125.875 C 257.195312 124.75 257.132812 124.75 256.757812 125.75 Z M 256.757812 125.75 "/>
<path style=" stroke:none;fill-rule:nonzero;fill:rgb(0%,0%,0%);fill-opacity:1;" d="M 34.941406 128.6875 C 34.941406 129 35.253906 129.375 35.691406 129.5 C 36.191406 129.6875 35.878906 131.3125 34.628906 134.875 C 33.445312 138.375 32.570312 139.9375 32.007812 139.75 C 31.574219 139.5625 31.074219 139.6875 30.949219 139.9375 C 30.574219 140.5 35.253906 142.5 36.8125 142.5 C 37.4375 142.5 37.25 142.125 36.316406 141.375 L 34.878906 140.25 L 36.191406 136.75 C 37.125 134.4375 38.0625 133.0625 39.058594 132.5625 C 41.304688 131.5625 43.488281 131.75 43.925781 132.9375 C 44.300781 133.875 44.425781 133.875 44.925781 133.125 C 46.546875 130.5625 44.050781 129.3125 40.308594 130.875 C 39.058594 131.375 38.0625 131.6875 38.0625 131.5625 C 38.0625 131.4375 38.3125 130.625 38.683594 129.75 C 39.246094 128.1875 39.183594 128.125 37.125 128.125 C 35.941406 128.125 34.941406 128.375 34.941406 128.6875 Z M 34.941406 128.6875 "/>
<path style=" stroke:none;fill-rule:nonzero;fill:rgb(0%,0%,0%);fill-opacity:1;" d="M 231.800781 129 C 229.304688 129.8125 229.304688 129.8125 230.925781 130.5 C 232.175781 131 232.675781 131.8125 233.296875 134.6875 C 233.734375 136.625 233.984375 138.3125 233.859375 138.4375 C 233.484375 138.8125 224.25 141.25 223.253906 141.25 C 222.003906 141.25 220.257812 133.625 221.382812 133.25 C 222.378906 132.9375 222.316406 131.875 221.382812 131.875 C 220.945312 131.875 219.507812 132.1875 218.261719 132.5625 C 215.828125 133.1875 215.015625 134.375 217.011719 134.375 C 217.949219 134.375 218.574219 135.9375 220.445312 143.25 C 222.503906 151.4375 222.628906 152.125 221.628906 152.875 C 219.820312 154.1875 221.007812 154.3125 224.625 153.125 C 227.871094 152.0625 228.121094 151.75 225.9375 151.625 C 225.375 151.5625 224.625 150 223.9375 147.375 L 222.878906 143.125 L 225.5 142.4375 C 226.871094 142.0625 229.429688 141.375 231.113281 140.875 C 234.734375 139.875 234.859375 139.9375 235.980469 144.9375 C 236.605469 147.875 236.605469 148.375 235.667969 149.0625 C 234.046875 150.25 235.046875 150.5625 238.164062 149.75 C 241.035156 149 242.65625 147.5625 240.410156 147.75 C 239.476562 147.8125 238.914062 146.3125 236.980469 138.875 C 235.109375 131.5 234.859375 129.875 235.605469 129.5625 C 236.855469 129.125 236.667969 128.125 235.421875 128.1875 C 234.796875 128.1875 233.175781 128.5625 231.800781 129 Z M 231.800781 129 "/>
<path style=" stroke:none;fill-rule:nonzero;fill:rgb(0%,0%,0%);fill-opacity:1;" d="M 246.339844 132.25 C 240.472656 134.75 241.097656 144.3125 247.214844 145.875 C 250.082031 146.5625 252.453125 145.9375 254.265625 144 C 256.074219 142.0625 256.449219 140 255.699219 136.875 C 254.511719 132.3125 250.644531 130.375 246.339844 132.25 Z M 250.894531 133.75 C 253.765625 135.3125 254.949219 141.375 252.765625 143.375 C 250.832031 145.125 247.710938 144.875 246.089844 142.8125 C 241.972656 137.6875 245.527344 130.9375 250.894531 133.75 Z M 250.894531 133.75 "/>
<path style=" stroke:none;fill-rule:nonzero;fill:rgb(0%,0%,0%);fill-opacity:1;" d="M 46.984375 132.9375 C 45.238281 133.625 46.296875 134.25 48.980469 134.25 C 52.539062 134.1875 53.285156 134.875 52.785156 137.75 L 52.351562 140 L 48.105469 139.625 C 44.113281 139.25 43.738281 139.3125 43.054688 140.625 C 41.429688 143.6875 43.925781 146.6875 47.734375 146.0625 C 49.230469 145.8125 49.855469 146 50.414062 146.9375 C 51.226562 148.1875 54.910156 148.625 54.910156 147.5 C 54.910156 147.125 54.535156 146.875 54.035156 146.875 C 52.414062 146.875 52.414062 145.875 53.972656 141 C 55.59375 135.8125 55.46875 134.4375 53.035156 133.125 C 51.851562 132.5 48.355469 132.375 46.984375 132.9375 Z M 50.601562 141.125 C 51.351562 141.4375 51.476562 141.9375 51.164062 142.875 C 50.539062 144.5 47.859375 145.3125 46.171875 144.375 C 44.988281 143.75 44.488281 141.875 45.363281 141.0625 C 45.859375 140.5 49.292969 140.5625 50.601562 141.125 Z M 50.601562 141.125 "/>
<path style=" stroke:none;fill-rule:nonzero;fill:rgb(0%,0%,0%);fill-opacity:1;" d="M 86.292969 134 C 87.230469 134.75 87.355469 135.375 87.042969 137.625 C 86.417969 141.5625 86.042969 142.0625 83.984375 141.25 C 79.929688 139.75 76.183594 141.3125 74.5 145.375 C 73.066406 148.75 73.378906 151.125 75.5 153.25 C 77.246094 155 77.746094 155.125 80.492188 154.875 C 82.675781 154.625 83.609375 154.8125 83.859375 155.4375 C 84.234375 156.375 87.976562 156.5625 87.976562 155.625 C 87.976562 155.25 87.542969 155 87.042969 155 C 85.730469 155 85.855469 153.3125 87.976562 143.5625 C 89.039062 138.8125 89.851562 134.5625 89.851562 134.0625 C 89.851562 133.375 89.164062 133.125 87.542969 133.125 C 85.359375 133.1875 85.296875 133.25 86.292969 134 Z M 82.863281 142.5625 C 85.359375 143.4375 85.667969 144.5625 84.671875 149.0625 C 83.921875 152.25 83.609375 152.8125 82.050781 153.1875 C 80.054688 153.75 77.121094 152.5625 76.496094 150.9375 C 75.4375 148.0625 76.996094 143.5 79.429688 142.5 C 80.179688 142.1875 80.804688 141.9375 80.863281 141.9375 C 80.925781 141.875 81.800781 142.1875 82.863281 142.5625 Z M 82.863281 142.5625 "/>
<path style=" stroke:none;fill-rule:nonzero;fill:rgb(0%,0%,0%);fill-opacity:1;" d="M 59.277344 136.8125 C 59.277344 137.125 59.589844 137.5 59.960938 137.625 C 60.460938 137.8125 60.460938 138.5625 60.023438 140.3125 C 59.652344 141.6875 59.027344 144 58.652344 145.4375 C 58.277344 147.0625 57.589844 148.125 57.09375 148.125 C 55.21875 148.125 56.21875 149.125 58.777344 149.8125 C 61.585938 150.5625 62.769531 150.3125 61.023438 149.3125 C 60.085938 148.8125 60.085938 148.4375 61.148438 144.4375 C 61.710938 142.0625 62.457031 139.8125 62.644531 139.4375 C 63.269531 138.4375 66.886719 138.5625 68.324219 139.625 C 69.507812 140.5 69.507812 140.5625 68.324219 145.3125 C 67.449219 148.9375 66.824219 150.25 65.890625 150.625 C 64.453125 151.1875 64.394531 151.125 68.511719 152.4375 C 70.570312 153.0625 71.070312 152.6875 69.820312 151.4375 C 69.257812 150.875 69.320312 149.75 70.132812 146.875 C 72.253906 139.3125 71.445312 137.5 66.015625 137.5 C 64.394531 137.5 63.019531 137.1875 63.019531 136.875 C 63.019531 136.5 62.207031 136.25 61.148438 136.25 C 60.148438 136.25 59.277344 136.5 59.277344 136.8125 Z M 59.277344 136.8125 "/>
<path style=" stroke:none;fill-rule:nonzero;fill:rgb(0%,0%,0%);fill-opacity:1;" d="M 105.074219 138.375 C 102.765625 139.375 101.457031 142.375 102.265625 144.5625 C 102.828125 146 104.761719 147.875 109.441406 151.4375 C 111.9375 153.375 112.375 155.4375 110.566406 157.0625 C 107.882812 159.5 101.707031 157.3125 101.707031 154 C 101.707031 151.8125 100.707031 152.1875 100.207031 154.5 C 99.707031 156.9375 101.082031 158.375 104.886719 159.375 C 109.753906 160.6875 114.183594 158.25 114.183594 154.1875 C 114.183594 151.75 112.6875 149.6875 109.191406 147.5625 C 107.507812 146.5 105.636719 144.9375 105.074219 144.0625 C 104.140625 142.625 104.140625 142.375 105.074219 140.9375 C 107.007812 138 112.9375 139.375 112.9375 142.6875 C 112.9375 143.25 113.25 143.75 113.5625 143.75 C 113.933594 143.75 114.183594 143.375 114.183594 142.9375 C 114.183594 142.5625 114.371094 141.5625 114.558594 140.875 C 114.871094 139.75 114.496094 139.375 111.9375 138.5 C 108.382812 137.3125 107.632812 137.3125 105.074219 138.375 Z M 105.074219 138.375 "/>
<path style=" stroke:none;fill-rule:nonzero;fill:rgb(0%,0%,0%);fill-opacity:1;" d="M 174.210938 140.75 C 174.335938 141.5625 174.832031 142.1875 175.332031 142.1875 C 175.832031 142.1875 176.332031 141.5625 176.457031 140.75 C 176.644531 139.6875 176.332031 139.375 175.332031 139.375 C 174.335938 139.375 174.023438 139.6875 174.210938 140.75 Z M 174.210938 140.75 "/>
<path style=" stroke:none;fill-rule:nonzero;fill:rgb(0%,0%,0%);fill-opacity:1;" d="M 198.730469 144 C 196.546875 144.9375 194.988281 146.625 195.796875 147.125 C 196.171875 147.3125 196.734375 147.0625 197.171875 146.625 C 197.546875 146.125 198.730469 145.5 199.792969 145.25 C 202.101562 144.75 203.410156 146.0625 203.410156 148.8125 C 203.410156 150.25 203.097656 150.5 201.101562 150.8125 C 196.671875 151.5625 194.925781 153.875 196.546875 156.9375 C 197.421875 158.5 200.914062 158.5 202.847656 156.9375 C 204.035156 155.9375 204.410156 155.9375 205.15625 156.625 C 206.28125 157.75 206.71875 157.75 208.464844 156.25 L 209.960938 155.0625 L 208.277344 155 C 206.71875 155 206.59375 154.75 205.90625 150.4375 C 204.722656 143.3125 203.285156 142 198.730469 144 Z M 204.035156 153.0625 C 204.035156 154.4375 203.597656 155.0625 202.039062 155.8125 C 199.917969 156.875 198.730469 156.6875 198.167969 155.1875 C 197.671875 153.875 198.230469 153.125 200.539062 152.125 C 203.410156 150.875 204.035156 151.0625 204.035156 153.0625 Z M 204.035156 153.0625 "/>
<path style=" stroke:none;fill-rule:nonzero;fill:rgb(0%,0%,0%);fill-opacity:1;" d="M 189.058594 145.375 C 188.5625 145.4375 186.5 145.75 184.566406 145.9375 C 181.574219 146.25 180.949219 146.5625 180.949219 147.5625 C 180.949219 148.1875 181.261719 148.75 181.574219 148.75 C 181.945312 148.75 182.195312 148.5 182.195312 148.125 C 182.195312 147.5 185.941406 146.625 187.4375 147 C 188.1875 147.125 187.75 148.4375 185.003906 153.375 C 183.132812 156.75 181.695312 159.6875 181.820312 159.9375 C 182.007812 160.1875 184.503906 160.0625 187.375 159.75 C 192.242188 159.25 192.742188 159.0625 192.992188 157.6875 C 193.304688 156.0625 192.929688 155.875 191.929688 157.1875 C 191.554688 157.6875 189.746094 158.25 187.875 158.5 L 184.566406 158.9375 L 185.316406 157.4375 C 185.753906 156.625 187.375 153.75 188.808594 151.125 C 192.304688 145 192.304688 144.625 189.058594 145.375 Z M 189.058594 145.375 "/>
<path style=" stroke:none;fill-rule:nonzero;fill:rgb(0%,0%,0%);fill-opacity:1;" d="M 174.707031 147.3125 C 172.710938 148.1875 172.648438 148.3125 173.835938 148.75 C 174.957031 149.1875 175.207031 150 175.582031 154.1875 C 175.894531 158.375 175.832031 159.1875 174.894531 159.8125 C 173.335938 161 174.085938 161.25 177.515625 160.6875 C 179.949219 160.25 180.324219 160.0625 179.324219 159.6875 C 178.140625 159.3125 177.953125 158.5625 177.453125 152.8125 L 176.894531 146.375 Z M 174.707031 147.3125 "/>
<path style=" stroke:none;fill-rule:nonzero;fill:rgb(0%,0%,0%);fill-opacity:1;" d="M 120.050781 148.0625 C 118.054688 149.25 116.679688 152.0625 116.679688 154.8125 C 116.679688 158.375 119.675781 161.25 123.292969 161.25 C 124.730469 161.25 128.535156 159.6875 128.535156 159.0625 C 128.535156 158.9375 127.039062 159 125.230469 159.1875 C 122.109375 159.5 121.796875 159.375 120.550781 157.8125 C 117.867188 154.4375 119.300781 149.375 123.167969 148.375 C 124.792969 148 127.289062 149 127.289062 150.0625 C 127.289062 150.4375 127.601562 150.5 127.910156 150.3125 C 128.910156 149.6875 128.660156 147.6875 127.539062 147.25 C 125.601562 146.5 121.921875 146.875 120.050781 148.0625 Z M 120.050781 148.0625 "/>
<path style=" stroke:none;fill-rule:nonzero;fill:rgb(0%,0%,0%);fill-opacity:1;" d="M 167.410156 148.875 L 165.347656 150.9375 L 165.347656 149.125 C 165.347656 147.5 165.226562 147.375 163.664062 147.8125 C 161.605469 148.3125 160.296875 149.375 161.730469 149.375 C 162.976562 149.375 163.476562 151.1875 163.476562 156.375 C 163.476562 159.75 163.289062 160.625 162.542969 160.625 C 162.042969 160.625 161.605469 160.875 161.605469 161.25 C 161.605469 162 165.722656 162 167.535156 161.3125 C 168.78125 160.8125 168.78125 160.8125 167.472656 160.375 C 166.035156 159.9375 165.347656 157.8125 165.347656 154 C 165.347656 151.3125 167.96875 149.125 170.527344 149.625 C 172.089844 149.9375 172.273438 149.8125 172.089844 148.5625 C 171.777344 146.4375 169.71875 146.5625 167.410156 148.875 Z M 167.410156 148.875 "/>
<path style=" stroke:none;fill-rule:nonzero;fill:rgb(0%,0%,0%);fill-opacity:1;" d="M 133.652344 148.4375 C 132.527344 148.9375 131.71875 149.625 131.96875 150 C 132.21875 150.4375 132.777344 150.4375 133.589844 149.9375 C 134.277344 149.625 135.710938 149.375 136.835938 149.5 C 138.707031 149.6875 138.832031 149.875 139.019531 152.3125 L 139.207031 155 L 136.398438 155 C 132.777344 155 131.65625 155.4375 130.96875 157.375 C 129.597656 160.9375 134.214844 163.375 137.769531 160.875 C 138.957031 160.0625 139.144531 160.0625 139.144531 160.875 C 139.144531 162.1875 141.328125 162.6875 143.011719 161.8125 L 144.445312 161 L 142.886719 160.625 C 141.390625 160.25 141.328125 160.125 141.578125 155.1875 C 141.765625 150.6875 141.640625 150 140.453125 148.8125 C 138.957031 147.3125 136.585938 147.1875 133.652344 148.4375 Z M 139.019531 157.3125 C 138.894531 158.5 138.269531 159.3125 137.023438 159.9375 C 134.773438 161 133.214844 160.25 133.214844 158.0625 C 133.214844 156.8125 133.589844 156.5 135.398438 156.1875 C 139.207031 155.5 139.269531 155.5 139.019531 157.3125 Z M 139.019531 157.3125 "/>
<path style=" stroke:none;fill-rule:nonzero;fill:rgb(0%,0%,0%);fill-opacity:1;" d="M 146.503906 148.25 C 144.632812 148.875 144.136719 150 145.695312 150 C 146.445312 150 146.628906 151 146.628906 155 C 146.628906 159.1875 146.816406 160.1875 147.878906 161.25 C 149.375 162.75 151.0625 162.8125 153.554688 161.5625 C 155.242188 160.6875 155.492188 160.6875 156.363281 161.5625 C 157.488281 162.6875 157.550781 162.6875 159.296875 161.8125 L 160.605469 161.0625 L 159.234375 160.5625 C 157.925781 160.0625 157.863281 159.6875 157.863281 153.75 L 157.863281 147.5 L 156.175781 147.875 C 155.179688 148.125 154.242188 148.4375 153.992188 148.5625 C 153.183594 149 153.433594 150 154.367188 150 C 154.929688 150 155.304688 151.3125 155.617188 154.1875 C 155.988281 158.0625 155.925781 158.5 154.679688 159.5 C 153.121094 160.8125 150.0625 161 149.3125 159.8125 C 149.0625 159.4375 148.691406 156.5 148.503906 153.375 L 148.191406 147.6875 Z M 146.503906 148.25 "/>
</g>
</svg>
