<?xml version="1.0" encoding="UTF-8"?>
<svg xmlns="http://www.w3.org/2000/svg" xmlns:xlink="http://www.w3.org/1999/xlink" width="150px" height="88px" viewBox="0 0 150 88" version="1.1">
<g id="surface1">
<path style=" stroke:none;fill-rule:nonzero;fill:rgb(0%,0%,0%);fill-opacity:1;" d="M 72.628906 5.625 C 67.265625 8.484375 51.226562 17.976562 50.351562 18.824219 C 49.820312 19.328125 49.292969 20.175781 49.167969 20.742188 C 48.917969 22.0625 48.917969 47.363281 49.167969 48.683594 C 49.292969 49.25 49.761719 50.066406 50.226562 50.539062 C 51.132812 51.480469 72.847656 64.175781 74.5 64.773438 C 75.25 65.027344 75.75 65.027344 76.5 64.773438 C 78.148438 64.175781 99.867188 51.480469 100.769531 50.539062 C 101.238281 50.066406 101.703125 49.25 101.828125 48.683594 C 102.078125 47.363281 102.078125 22.0625 101.828125 20.742188 C 101.703125 20.175781 101.175781 19.328125 100.644531 18.824219 C 100.117188 18.324219 95.40625 15.429688 90.164062 12.382812 C 78.867188 5.78125 76.28125 4.398438 75.5 4.398438 C 75.1875 4.398438 73.875 4.933594 72.628906 5.625 Z M 88.289062 12.570312 C 94.5625 16.21875 99.929688 19.484375 100.238281 19.863281 C 100.738281 20.460938 100.769531 21.621094 100.769531 34.730469 C 100.769531 47.835938 100.738281 48.996094 100.238281 49.59375 C 99.929688 49.941406 94.5625 53.238281 88.289062 56.917969 C 78.023438 62.953125 76.777344 63.613281 75.5 63.613281 C 74.25 63.613281 72.941406 62.921875 62.707031 56.917969 C 56.4375 53.238281 51.070312 49.941406 50.789062 49.59375 C 50.257812 48.996094 50.226562 47.835938 50.226562 34.730469 C 50.226562 21.621094 50.257812 20.460938 50.789062 19.863281 C 51.195312 19.359375 67.109375 9.867188 73.625 6.222656 C 74.34375 5.8125 75.09375 5.65625 75.8125 5.75 C 76.46875 5.847656 81.304688 8.484375 88.289062 12.570312 Z M 88.289062 12.570312 "/>
<path style=" stroke:none;fill-rule:nonzero;fill:rgb(0%,0%,0%);fill-opacity:1;" d="M 83.390625 29.449219 C 83.671875 29.511719 84.171875 29.511719 84.484375 29.449219 C 84.765625 29.355469 84.515625 29.292969 83.921875 29.292969 C 83.328125 29.292969 83.078125 29.355469 83.390625 29.449219 Z M 83.390625 29.449219 "/>
<path style=" stroke:none;fill-rule:nonzero;fill:rgb(0%,0%,0%);fill-opacity:1;" d="M 91.097656 30.800781 C 90.257812 31.679688 89.039062 33.21875 88.414062 34.257812 C 87.199219 36.269531 86.824219 36.425781 84.453125 35.859375 L 83.609375 35.671875 L 84.859375 33.628906 C 86.136719 31.523438 86.417969 29.886719 85.515625 29.605469 C 85.203125 29.511719 85.171875 29.605469 85.421875 30.046875 C 85.796875 30.738281 85.515625 31.554688 84.046875 34.003906 C 83.234375 35.355469 82.765625 35.828125 82.238281 35.828125 C 81.863281 35.828125 81.273438 36.046875 80.929688 36.300781 C 80.367188 36.738281 80.398438 36.738281 81.210938 36.425781 C 82.425781 35.890625 82.582031 36.269531 81.800781 37.871094 C 80.867188 39.820312 81.367188 39.664062 82.457031 37.683594 C 83.265625 36.175781 83.390625 36.078125 84.296875 36.269531 C 84.828125 36.363281 85.640625 36.457031 86.136719 36.457031 C 86.980469 36.457031 87.011719 36.488281 86.667969 37.398438 C 86.261719 38.625 86.542969 39.285156 87.414062 39.253906 C 87.945312 39.222656 87.976562 39.191406 87.601562 39.066406 C 87.292969 39.003906 87.042969 38.71875 87.042969 38.46875 C 87.042969 37.777344 87.945312 36.144531 88.320312 36.144531 C 88.507812 36.144531 88.539062 36.015625 88.445312 35.828125 C 88.226562 35.484375 90.351562 32.246094 91.972656 30.421875 C 93.53125 28.664062 92.875 28.945312 91.097656 30.800781 Z M 91.097656 30.800781 "/>
<path style=" stroke:none;fill-rule:nonzero;fill:rgb(0%,0%,0%);fill-opacity:1;" d="M 80.367188 30.484375 C 78.992188 31.367188 78.835938 31.398438 78.210938 30.957031 C 77.808594 30.675781 76.964844 30.515625 76.125 30.546875 L 74.71875 30.578125 L 76.125 30.707031 C 78.117188 30.894531 78.304688 31.144531 78.085938 33.472656 C 77.929688 35.292969 77.960938 35.484375 78.585938 35.828125 C 78.960938 36.015625 79.523438 36.113281 79.804688 36.046875 C 80.179688 35.953125 80.148438 35.890625 79.648438 35.859375 C 77.246094 35.734375 78.835938 31.648438 81.894531 30.046875 C 82.425781 29.761719 82.613281 29.542969 82.332031 29.542969 C 82.082031 29.542969 81.210938 29.984375 80.367188 30.484375 Z M 80.367188 30.484375 "/>
<path style=" stroke:none;fill-rule:nonzero;fill:rgb(0%,0%,0%);fill-opacity:1;" d="M 63.394531 30.644531 C 61.023438 31.367188 58.996094 33 58 34.949219 C 57.21875 36.488281 57.25 37.273438 58.183594 38.1875 C 58.777344 38.8125 59.210938 38.972656 60.429688 38.941406 L 61.929688 38.878906 L 60.398438 38.6875 C 58.902344 38.46875 58.027344 37.777344 58.027344 36.867188 C 58.027344 35.230469 60.304688 32.527344 62.585938 31.460938 C 64.484375 30.546875 66.890625 30.578125 67.511719 31.492188 C 67.792969 31.867188 68.011719 32.027344 68.011719 31.804688 C 68.011719 31.617188 67.730469 31.144531 67.386719 30.800781 C 66.671875 30.078125 65.359375 30.015625 63.394531 30.644531 Z M 63.394531 30.644531 "/>
<path style=" stroke:none;fill-rule:nonzero;fill:rgb(0%,0%,0%);fill-opacity:1;" d="M 72.410156 31.867188 C 71.195312 33.1875 71.601562 34.003906 73.84375 34.730469 C 74.90625 35.074219 75.96875 35.546875 76.15625 35.734375 C 76.75 36.332031 75.9375 37.589844 74.4375 38.375 C 73.3125 38.941406 73.28125 39.003906 74.09375 38.8125 C 75.375 38.5625 76.53125 37.652344 76.902344 36.644531 C 77.308594 35.484375 76.808594 34.792969 75.3125 34.445312 C 72.441406 33.816406 71.851562 33.15625 73.003906 31.867188 C 73.40625 31.460938 73.59375 31.113281 73.40625 31.113281 C 73.25 31.113281 72.785156 31.460938 72.410156 31.867188 Z M 72.410156 31.867188 "/>
<path style=" stroke:none;fill-rule:nonzero;fill:rgb(0%,0%,0%);fill-opacity:1;" d="M 64.390625 32.84375 C 64.421875 33.3125 64.640625 33.472656 65.296875 33.503906 C 66.046875 33.535156 66.046875 33.535156 65.390625 33.410156 C 64.953125 33.347656 64.546875 33.03125 64.484375 32.75 C 64.390625 32.371094 64.359375 32.402344 64.390625 32.84375 Z M 64.390625 32.84375 "/>
<path style=" stroke:none;fill-rule:nonzero;fill:rgb(0%,0%,0%);fill-opacity:1;" d="M 64.359375 34.539062 C 61.835938 34.855469 61.960938 35.292969 64.546875 35.074219 C 67.574219 34.761719 67.417969 35.230469 63.457031 37.964844 C 63.144531 38.1875 63.394531 38.089844 64.046875 37.746094 C 64.703125 37.367188 65.296875 37.085938 65.390625 37.085938 C 65.453125 37.085938 65.171875 37.777344 64.734375 38.65625 C 63.769531 40.542969 63.707031 41.109375 64.640625 39.601562 C 67.386719 35.042969 67.511719 34.886719 68.480469 34.855469 C 69.320312 34.824219 69.289062 34.792969 68.167969 34.539062 C 66.765625 34.257812 66.640625 34.257812 64.359375 34.539062 Z M 64.359375 34.539062 "/>
<path style=" stroke:none;fill-rule:nonzero;fill:rgb(0%,0%,0%);fill-opacity:1;" d="M 80.773438 35.421875 C 80.367188 35.921875 80.398438 35.953125 80.898438 35.546875 C 81.179688 35.324219 81.429688 35.074219 81.429688 35.011719 C 81.429688 34.761719 81.179688 34.917969 80.773438 35.421875 Z M 80.773438 35.421875 "/>
<path style=" stroke:none;fill-rule:nonzero;fill:rgb(0%,0%,0%);fill-opacity:1;" d="M 68.230469 35.734375 C 67.761719 36.175781 68.042969 37.652344 68.726562 38.28125 C 69.632812 39.128906 70.351562 39.191406 70.039062 38.40625 C 69.882812 38.121094 69.726562 37.398438 69.632812 36.835938 C 69.570312 36.269531 69.382812 35.734375 69.226562 35.640625 C 68.851562 35.421875 68.914062 36.078125 69.382812 37.460938 C 69.632812 38.121094 69.695312 38.65625 69.539062 38.65625 C 69.007812 38.65625 68.261719 37.085938 68.386719 36.300781 C 68.570312 35.453125 68.542969 35.386719 68.230469 35.734375 Z M 68.230469 35.734375 "/>
<path style=" stroke:none;fill-rule:nonzero;fill:rgb(0%,0%,0%);fill-opacity:1;" d="M 70.632812 39.222656 C 70.789062 39.472656 73.003906 39.347656 73.003906 39.097656 C 73.003906 39.035156 72.441406 38.972656 71.726562 38.972656 C 71.039062 38.972656 70.539062 39.097656 70.632812 39.222656 Z M 70.632812 39.222656 "/>
<path style=" stroke:none;fill-rule:nonzero;fill:rgb(0%,0%,0%);fill-opacity:1;" d="M 137.523438 56.070312 C 136.835938 56.601562 136.804688 57.136719 137.460938 57.074219 C 138.144531 57.011719 142.140625 66 141.578125 66.347656 C 141.359375 66.472656 141.296875 66.691406 141.421875 66.816406 C 141.703125 67.101562 144.164062 66 143.945312 65.652344 C 143.882812 65.527344 143.632812 65.464844 143.386719 65.558594 C 143.136719 65.652344 142.265625 64.050781 140.703125 60.65625 C 139.453125 57.890625 138.363281 55.628906 138.238281 55.628906 C 138.144531 55.628906 137.800781 55.847656 137.523438 56.070312 Z M 137.523438 56.070312 "/>
<path style=" stroke:none;fill-rule:nonzero;fill:rgb(0%,0%,0%);fill-opacity:1;" d="M 8.703125 58.550781 C 6.582031 59.996094 5.554688 62.511719 6.210938 64.742188 C 6.925781 67.164062 8.796875 68.578125 11.949219 69.078125 L 13.695312 69.363281 L 14.320312 67.824219 C 14.695312 66.941406 15.132812 66.3125 15.414062 66.3125 C 16.410156 66.3125 15.847656 65.75 14.039062 64.960938 C 12.757812 64.429688 12.167969 64.269531 12.167969 64.554688 C 12.167969 64.773438 12.507812 65.121094 12.945312 65.308594 C 13.882812 65.75 13.882812 65.875 13.101562 67.164062 C 12.664062 67.886719 12.261719 68.199219 11.699219 68.199219 C 9.734375 68.199219 7.859375 66.660156 7.363281 64.679688 C 6.800781 62.324219 8.796875 59.054688 11.078125 58.644531 C 12.632812 58.332031 14.945312 59.460938 15.632812 60.878906 L 16.128906 61.882812 L 16.503906 61.097656 C 16.972656 60.027344 16.597656 59.558594 14.507812 58.582031 C 12.414062 57.578125 10.140625 57.578125 8.703125 58.550781 Z M 8.703125 58.550781 "/>
<path style=" stroke:none;fill-rule:nonzero;fill:rgb(0%,0%,0%);fill-opacity:1;" d="M 134.835938 62.230469 C 133.089844 63.296875 132.71875 65.464844 133.933594 67.289062 C 135.429688 69.519531 138.082031 69.613281 139.421875 67.507812 C 140.234375 66.1875 139.984375 65.96875 138.890625 67.039062 C 137.707031 68.167969 136.273438 68.167969 135.210938 67.039062 L 134.429688 66.1875 L 136.554688 65.121094 C 137.707031 64.523438 138.738281 63.988281 138.769531 63.957031 C 139.109375 63.644531 138.363281 62.480469 137.585938 62.070312 C 136.398438 61.441406 136.085938 61.472656 134.835938 62.230469 Z M 137.273438 63.015625 C 137.738281 63.578125 137.617188 63.769531 135.804688 64.742188 C 134.335938 65.558594 133.996094 65.464844 134.273438 64.304688 C 134.679688 62.699219 136.398438 61.945312 137.273438 63.015625 Z M 137.273438 63.015625 "/>
<path style=" stroke:none;fill-rule:nonzero;fill:rgb(0%,0%,0%);fill-opacity:1;" d="M 128.378906 63.234375 C 128.257812 63.546875 128.226562 64.019531 128.320312 64.269531 C 128.441406 64.523438 128.378906 64.804688 128.226562 64.898438 C 127.757812 65.183594 127.851562 65.78125 128.320312 65.589844 C 128.628906 65.464844 128.972656 66.0625 129.472656 67.445312 C 130.28125 69.804688 131.15625 71.027344 131.96875 71.027344 C 132.6875 71.027344 134.398438 69.613281 134.089844 69.269531 C 133.933594 69.144531 133.589844 69.269531 133.277344 69.550781 C 132.53125 70.242188 132.1875 70.210938 131.59375 69.519531 C 131 68.828125 129.71875 65.402344 129.9375 65.058594 C 130.03125 64.898438 130.53125 64.710938 131.03125 64.585938 C 131.9375 64.398438 132.1875 64.113281 131.78125 63.738281 C 131.6875 63.613281 131.125 63.738281 130.53125 63.988281 C 129.9375 64.238281 129.472656 64.335938 129.472656 64.175781 C 129.472656 64.050781 129.285156 63.644531 129.035156 63.296875 C 128.597656 62.730469 128.566406 62.730469 128.378906 63.234375 Z M 128.378906 63.234375 "/>
<path style=" stroke:none;fill-rule:nonzero;fill:rgb(0%,0%,0%);fill-opacity:1;" d="M 17.46875 64.710938 C 17.46875 64.867188 17.625 65.058594 17.84375 65.121094 C 18.09375 65.214844 17.9375 66.03125 17.3125 67.824219 C 16.722656 69.582031 16.285156 70.367188 16.003906 70.273438 C 15.789062 70.179688 15.539062 70.242188 15.476562 70.367188 C 15.289062 70.652344 17.625 71.65625 18.40625 71.65625 C 18.71875 71.65625 18.625 71.46875 18.15625 71.089844 L 17.4375 70.527344 L 18.09375 68.765625 C 18.5625 67.601562 19.03125 66.910156 19.53125 66.660156 C 20.652344 66.15625 21.742188 66.25 21.960938 66.847656 C 22.148438 67.320312 22.210938 67.320312 22.460938 66.941406 C 23.273438 65.652344 22.023438 65.027344 20.15625 65.8125 C 19.53125 66.0625 19.03125 66.21875 19.03125 66.15625 C 19.03125 66.09375 19.15625 65.6875 19.34375 65.246094 C 19.625 64.460938 19.59375 64.429688 18.5625 64.429688 C 17.96875 64.429688 17.46875 64.554688 17.46875 64.710938 Z M 17.46875 64.710938 "/>
<path style=" stroke:none;fill-rule:nonzero;fill:rgb(0%,0%,0%);fill-opacity:1;" d="M 115.898438 64.867188 C 114.652344 65.277344 114.652344 65.277344 115.460938 65.621094 C 116.085938 65.875 116.335938 66.28125 116.648438 67.730469 C 116.867188 68.703125 116.992188 69.550781 116.929688 69.613281 C 116.742188 69.804688 112.125 71.027344 111.625 71.027344 C 111 71.027344 110.128906 67.195312 110.691406 67.003906 C 111.1875 66.847656 111.15625 66.3125 110.691406 66.3125 C 110.472656 66.3125 109.753906 66.472656 109.132812 66.660156 C 107.914062 66.972656 107.507812 67.570312 108.507812 67.570312 C 108.976562 67.570312 109.289062 68.355469 110.222656 72.035156 C 111.25 76.152344 111.3125 76.496094 110.8125 76.875 C 109.910156 77.535156 110.503906 77.597656 112.3125 77 C 113.9375 76.464844 114.0625 76.308594 112.96875 76.246094 C 112.6875 76.214844 112.3125 75.429688 111.96875 74.109375 L 111.4375 71.972656 L 112.75 71.625 C 113.4375 71.4375 114.714844 71.089844 115.554688 70.839844 C 117.367188 70.335938 117.429688 70.367188 117.992188 72.882812 C 118.304688 74.359375 118.304688 74.613281 117.835938 74.957031 C 117.023438 75.554688 117.523438 75.710938 119.082031 75.304688 C 120.515625 74.925781 121.328125 74.203125 120.203125 74.296875 C 119.738281 74.328125 119.457031 73.574219 118.492188 69.835938 C 117.554688 66.125 117.429688 65.308594 117.804688 65.152344 C 118.429688 64.929688 118.335938 64.429688 117.710938 64.460938 C 117.398438 64.460938 116.585938 64.648438 115.898438 64.867188 Z M 115.898438 64.867188 "/>
<path style=" stroke:none;fill-rule:nonzero;fill:rgb(0%,0%,0%);fill-opacity:1;" d="M 123.171875 66.503906 C 120.234375 67.761719 120.546875 72.570312 123.609375 73.355469 C 125.039062 73.699219 126.226562 73.386719 127.132812 72.410156 C 128.039062 71.4375 128.226562 70.398438 127.851562 68.828125 C 127.257812 66.535156 125.320312 65.558594 123.171875 66.503906 Z M 125.445312 67.257812 C 126.882812 68.042969 127.476562 71.089844 126.382812 72.097656 C 125.414062 72.976562 123.855469 72.851562 123.046875 71.8125 C 120.984375 69.238281 122.765625 65.84375 125.445312 67.257812 Z M 125.445312 67.257812 "/>
<path style=" stroke:none;fill-rule:nonzero;fill:rgb(0%,0%,0%);fill-opacity:1;" d="M 23.492188 66.847656 C 22.617188 67.195312 23.148438 67.507812 24.492188 67.507812 C 26.269531 67.476562 26.640625 67.824219 26.390625 69.269531 L 26.175781 70.398438 L 24.054688 70.210938 C 22.054688 70.023438 21.867188 70.054688 21.527344 70.714844 C 20.714844 72.253906 21.960938 73.761719 23.867188 73.449219 C 24.617188 73.324219 24.929688 73.417969 25.207031 73.886719 C 25.613281 74.515625 27.453125 74.738281 27.453125 74.171875 C 27.453125 73.984375 27.265625 73.855469 27.015625 73.855469 C 26.207031 73.855469 26.207031 73.355469 26.984375 70.902344 C 27.796875 68.292969 27.734375 67.601562 26.515625 66.941406 C 25.925781 66.628906 24.179688 66.566406 23.492188 66.847656 Z M 25.300781 70.964844 C 25.675781 71.121094 25.738281 71.375 25.582031 71.847656 C 25.269531 72.664062 23.929688 73.070312 23.085938 72.601562 C 22.492188 72.285156 22.242188 71.34375 22.679688 70.933594 C 22.929688 70.652344 24.648438 70.683594 25.300781 70.964844 Z M 25.300781 70.964844 "/>
<path style=" stroke:none;fill-rule:nonzero;fill:rgb(0%,0%,0%);fill-opacity:1;" d="M 43.148438 67.382812 C 43.617188 67.761719 43.679688 68.074219 43.523438 69.207031 C 43.210938 71.1875 43.023438 71.4375 41.992188 71.027344 C 39.964844 70.273438 38.09375 71.058594 37.25 73.101562 C 36.53125 74.800781 36.6875 75.996094 37.75 77.0625 C 38.625 77.941406 38.875 78.003906 40.246094 77.878906 C 41.335938 77.753906 41.804688 77.847656 41.929688 78.164062 C 42.117188 78.632812 43.988281 78.730469 43.988281 78.257812 C 43.988281 78.070312 43.773438 77.941406 43.523438 77.941406 C 42.867188 77.941406 42.929688 77.09375 43.988281 72.191406 C 44.519531 69.804688 44.925781 67.664062 44.925781 67.414062 C 44.925781 67.070312 44.582031 66.941406 43.773438 66.941406 C 42.679688 66.972656 42.648438 67.003906 43.148438 67.382812 Z M 41.429688 71.6875 C 42.679688 72.128906 42.835938 72.695312 42.335938 74.957031 C 41.960938 76.558594 41.804688 76.84375 41.023438 77.03125 C 40.027344 77.3125 38.5625 76.71875 38.25 75.898438 C 37.71875 74.453125 38.5 72.160156 39.714844 71.65625 C 40.089844 71.5 40.402344 71.375 40.429688 71.375 C 40.460938 71.34375 40.898438 71.5 41.429688 71.6875 Z M 41.429688 71.6875 "/>
<path style=" stroke:none;fill-rule:nonzero;fill:rgb(0%,0%,0%);fill-opacity:1;" d="M 29.640625 68.796875 C 29.640625 68.953125 29.796875 69.144531 29.980469 69.207031 C 30.230469 69.300781 30.230469 69.675781 30.011719 70.558594 C 29.828125 71.25 29.515625 72.410156 29.328125 73.132812 C 29.140625 73.953125 28.796875 74.484375 28.546875 74.484375 C 27.609375 74.484375 28.109375 74.988281 29.390625 75.335938 C 30.792969 75.710938 31.382812 75.585938 30.511719 75.082031 C 30.042969 74.832031 30.042969 74.644531 30.574219 72.632812 C 30.855469 71.4375 31.226562 70.304688 31.320312 70.117188 C 31.632812 69.613281 33.445312 69.675781 34.164062 70.210938 C 34.753906 70.652344 34.753906 70.683594 34.164062 73.070312 C 33.726562 74.894531 33.414062 75.554688 32.945312 75.742188 C 32.226562 76.027344 32.195312 75.996094 34.257812 76.652344 C 35.285156 76.96875 35.535156 76.78125 34.910156 76.152344 C 34.628906 75.867188 34.660156 75.304688 35.066406 73.855469 C 36.125 70.054688 35.722656 69.144531 33.007812 69.144531 C 32.195312 69.144531 31.507812 68.984375 31.507812 68.828125 C 31.507812 68.640625 31.101562 68.515625 30.574219 68.515625 C 30.074219 68.515625 29.640625 68.640625 29.640625 68.796875 Z M 29.640625 68.796875 "/>
<path style=" stroke:none;fill-rule:nonzero;fill:rgb(0%,0%,0%);fill-opacity:1;" d="M 52.539062 69.582031 C 51.382812 70.085938 50.726562 71.59375 51.132812 72.695312 C 51.414062 73.417969 52.382812 74.359375 54.71875 76.152344 C 55.96875 77.125 56.1875 78.164062 55.28125 78.980469 C 53.941406 80.207031 50.851562 79.105469 50.851562 77.441406 C 50.851562 76.339844 50.351562 76.527344 50.101562 77.691406 C 49.851562 78.917969 50.539062 79.640625 52.445312 80.144531 C 54.875 80.804688 57.09375 79.578125 57.09375 77.535156 C 57.09375 76.308594 56.34375 75.269531 54.59375 74.203125 C 53.753906 73.667969 52.820312 72.882812 52.539062 72.441406 C 52.070312 71.71875 52.070312 71.59375 52.539062 70.871094 C 53.503906 69.394531 56.46875 70.085938 56.46875 71.75 C 56.46875 72.035156 56.625 72.285156 56.78125 72.285156 C 56.96875 72.285156 57.09375 72.097656 57.09375 71.878906 C 57.09375 71.6875 57.1875 71.1875 57.28125 70.839844 C 57.4375 70.273438 57.25 70.085938 55.96875 69.644531 C 54.191406 69.046875 53.816406 69.046875 52.539062 69.582031 Z M 52.539062 69.582031 "/>
<path style=" stroke:none;fill-rule:nonzero;fill:rgb(0%,0%,0%);fill-opacity:1;" d="M 87.105469 70.777344 C 87.167969 71.1875 87.414062 71.5 87.664062 71.5 C 87.914062 71.5 88.164062 71.1875 88.226562 70.777344 C 88.320312 70.242188 88.164062 70.085938 87.664062 70.085938 C 87.167969 70.085938 87.011719 70.242188 87.105469 70.777344 Z M 87.105469 70.777344 "/>
<path style=" stroke:none;fill-rule:nonzero;fill:rgb(0%,0%,0%);fill-opacity:1;" d="M 99.367188 72.410156 C 98.273438 72.882812 97.492188 73.730469 97.898438 73.984375 C 98.085938 74.078125 98.367188 73.953125 98.585938 73.730469 C 98.773438 73.480469 99.367188 73.164062 99.898438 73.039062 C 101.050781 72.789062 101.703125 73.449219 101.703125 74.832031 C 101.703125 75.554688 101.546875 75.679688 100.550781 75.835938 C 98.335938 76.214844 97.460938 77.378906 98.273438 78.917969 C 98.710938 79.703125 100.457031 79.703125 101.421875 78.917969 C 102.015625 78.414062 102.203125 78.414062 102.578125 78.761719 C 103.140625 79.324219 103.359375 79.324219 104.234375 78.570312 L 104.980469 77.972656 L 104.140625 77.941406 C 103.359375 77.941406 103.296875 77.816406 102.953125 75.648438 C 102.359375 72.066406 101.640625 71.40625 99.367188 72.410156 Z M 102.015625 76.96875 C 102.015625 77.660156 101.796875 77.972656 101.019531 78.351562 C 99.960938 78.886719 99.367188 78.792969 99.085938 78.039062 C 98.835938 77.378906 99.117188 77 100.269531 76.496094 C 101.703125 75.867188 102.015625 75.960938 102.015625 76.96875 Z M 102.015625 76.96875 "/>
<path style=" stroke:none;fill-rule:nonzero;fill:rgb(0%,0%,0%);fill-opacity:1;" d="M 94.53125 73.101562 C 94.28125 73.132812 93.25 73.292969 92.28125 73.386719 C 90.789062 73.542969 90.476562 73.699219 90.476562 74.203125 C 90.476562 74.515625 90.632812 74.800781 90.789062 74.800781 C 90.972656 74.800781 91.097656 74.675781 91.097656 74.484375 C 91.097656 74.171875 92.96875 73.730469 93.71875 73.921875 C 94.09375 73.984375 93.875 74.644531 92.5 77.125 C 91.566406 78.824219 90.847656 80.300781 90.910156 80.425781 C 91.003906 80.550781 92.25 80.488281 93.6875 80.332031 C 96.121094 80.078125 96.371094 79.984375 96.496094 79.292969 C 96.652344 78.476562 96.464844 78.382812 95.964844 79.042969 C 95.777344 79.292969 94.875 79.578125 93.9375 79.703125 L 92.28125 79.921875 L 92.65625 79.167969 C 92.875 78.761719 93.6875 77.3125 94.40625 75.996094 C 96.152344 72.914062 96.152344 72.726562 94.53125 73.101562 Z M 94.53125 73.101562 "/>
<path style=" stroke:none;fill-rule:nonzero;fill:rgb(0%,0%,0%);fill-opacity:1;" d="M 87.351562 74.078125 C 86.355469 74.515625 86.324219 74.578125 86.917969 74.800781 C 87.476562 75.019531 87.601562 75.429688 87.789062 77.535156 C 87.945312 79.640625 87.914062 80.046875 87.445312 80.363281 C 86.667969 80.960938 87.042969 81.085938 88.757812 80.804688 C 89.976562 80.582031 90.164062 80.488281 89.664062 80.300781 C 89.070312 80.113281 88.976562 79.734375 88.726562 76.84375 L 88.445312 73.605469 Z M 87.351562 74.078125 "/>
<path style=" stroke:none;fill-rule:nonzero;fill:rgb(0%,0%,0%);fill-opacity:1;" d="M 60.023438 74.453125 C 59.027344 75.050781 58.339844 76.464844 58.339844 77.847656 C 58.339844 79.640625 59.835938 81.085938 61.648438 81.085938 C 62.367188 81.085938 64.265625 80.300781 64.265625 79.984375 C 64.265625 79.921875 63.519531 79.953125 62.617188 80.046875 C 61.054688 80.207031 60.898438 80.144531 60.273438 79.355469 C 58.933594 77.660156 59.648438 75.113281 61.585938 74.613281 C 62.398438 74.421875 63.644531 74.925781 63.644531 75.460938 C 63.644531 75.648438 63.800781 75.679688 63.953125 75.585938 C 64.453125 75.269531 64.328125 74.265625 63.769531 74.046875 C 62.800781 73.667969 60.960938 73.855469 60.023438 74.453125 Z M 60.023438 74.453125 "/>
<path style=" stroke:none;fill-rule:nonzero;fill:rgb(0%,0%,0%);fill-opacity:1;" d="M 83.703125 74.863281 L 82.671875 75.898438 L 82.671875 74.988281 C 82.671875 74.171875 82.613281 74.109375 81.832031 74.328125 C 80.804688 74.578125 80.148438 75.113281 80.867188 75.113281 C 81.488281 75.113281 81.738281 76.027344 81.738281 78.632812 C 81.738281 80.332031 81.644531 80.769531 81.273438 80.769531 C 81.023438 80.769531 80.804688 80.898438 80.804688 81.085938 C 80.804688 81.460938 82.859375 81.460938 83.765625 81.117188 C 84.390625 80.867188 84.390625 80.867188 83.734375 80.644531 C 83.015625 80.425781 82.671875 79.355469 82.671875 77.441406 C 82.671875 76.089844 83.984375 74.988281 85.265625 75.238281 C 86.046875 75.398438 86.136719 75.335938 86.046875 74.707031 C 85.890625 73.636719 84.859375 73.699219 83.703125 74.863281 Z M 83.703125 74.863281 "/>
<path style=" stroke:none;fill-rule:nonzero;fill:rgb(0%,0%,0%);fill-opacity:1;" d="M 66.828125 74.644531 C 66.265625 74.894531 65.859375 75.238281 65.984375 75.429688 C 66.109375 75.648438 66.390625 75.648438 66.796875 75.398438 C 67.140625 75.238281 67.855469 75.113281 68.417969 75.175781 C 69.351562 75.269531 69.414062 75.367188 69.507812 76.589844 L 69.601562 77.941406 L 68.199219 77.941406 C 66.390625 77.941406 65.828125 78.164062 65.484375 79.136719 C 64.796875 80.929688 67.109375 82.152344 68.882812 80.898438 C 69.476562 80.488281 69.570312 80.488281 69.570312 80.898438 C 69.570312 81.558594 70.664062 81.808594 71.507812 81.367188 L 72.222656 80.960938 L 71.445312 80.769531 C 70.695312 80.582031 70.664062 80.519531 70.789062 78.039062 C 70.882812 75.773438 70.820312 75.429688 70.226562 74.832031 C 69.476562 74.078125 68.292969 74.015625 66.828125 74.644531 Z M 69.507812 79.105469 C 69.445312 79.703125 69.132812 80.113281 68.511719 80.425781 C 67.386719 80.960938 66.609375 80.582031 66.609375 79.484375 C 66.609375 78.855469 66.796875 78.695312 67.699219 78.539062 C 69.601562 78.195312 69.632812 78.195312 69.507812 79.105469 Z M 69.507812 79.105469 "/>
<path style=" stroke:none;fill-rule:nonzero;fill:rgb(0%,0%,0%);fill-opacity:1;" d="M 73.25 74.546875 C 72.316406 74.863281 72.070312 75.429688 72.847656 75.429688 C 73.222656 75.429688 73.3125 75.929688 73.3125 77.941406 C 73.3125 80.046875 73.40625 80.550781 73.9375 81.085938 C 74.6875 81.839844 75.53125 81.871094 76.777344 81.242188 C 77.621094 80.804688 77.746094 80.804688 78.179688 81.242188 C 78.742188 81.808594 78.773438 81.808594 79.648438 81.367188 L 80.304688 80.992188 L 79.617188 80.738281 C 78.960938 80.488281 78.929688 80.300781 78.929688 77.3125 L 78.929688 74.171875 L 78.085938 74.359375 C 77.589844 74.484375 77.121094 74.644531 76.996094 74.707031 C 76.59375 74.925781 76.71875 75.429688 77.183594 75.429688 C 77.464844 75.429688 77.652344 76.089844 77.808594 77.535156 C 77.992188 79.484375 77.960938 79.703125 77.339844 80.207031 C 76.5625 80.867188 75.03125 80.960938 74.65625 80.363281 C 74.53125 80.175781 74.34375 78.695312 74.25 77.125 L 74.09375 74.265625 Z M 73.25 74.546875 "/>
</g>
</svg>
