<?xml version="1.0" standalone="no"?>
<!DOCTYPE svg PUBLIC "-//W3C//DTD SVG 20010904//EN"
 "http://www.w3.org/TR/2001/REC-SVG-20010904/DTD/svg10.dtd">
<svg version="1.0" xmlns="http://www.w3.org/2000/svg"
 width="481.000000pt" height="280.000000pt" viewBox="0 0 481.000000 280.000000"
 preserveAspectRatio="xMidYMid meet">

<g transform="translate(0.000000,280.000000) scale(0.100000,-0.100000)"
fill="#000000" stroke="none">
<path d="M2328 2621 c-172 -91 -686 -393 -714 -420 -17 -16 -34 -43 -38 -61
-8 -42 -8 -847 0 -889 4 -18 19 -44 34 -59 29 -30 725 -434 778 -453 24 -8 40
-8 64 0 53 19 749 423 778 453 15 15 30 41 34 59 8 42 8 847 0 889 -4 18 -21
45 -38 61 -17 16 -168 108 -336 205 -362 210 -445 254 -470 254 -10 0 -52 -17
-92 -39z m502 -221 c201 -116 373 -220 383 -232 16 -19 17 -56 17 -473 0 -417
-1 -454 -17 -473 -10 -11 -182 -116 -383 -233 -329 -192 -369 -213 -410 -213
-40 0 -82 22 -410 213 -201 117 -373 222 -382 233 -17 19 -18 56 -18 473 0
417 1 454 18 473 13 16 523 318 732 434 23 13 47 18 70 15 21 -3 176 -87 400
-217z"/>
<path d="M2673 1863 c9 -2 25 -2 35 0 9 3 1 5 -18 5 -19 0 -27 -2 -17 -5z"/>
<path d="M2920 1820 c-27 -28 -66 -77 -86 -110 -39 -64 -51 -69 -127 -51 l-27
6 40 65 c41 67 50 119 21 128 -10 3 -11 0 -3 -14 12 -22 3 -48 -44 -126 -26
-43 -41 -58 -58 -58 -12 0 -31 -7 -42 -15 -18 -14 -17 -14 9 -4 39 17 44 5 19
-46 -30 -62 -14 -57 21 6 26 48 30 51 59 45 17 -3 43 -6 59 -6 27 0 28 -1 17
-30 -13 -39 -4 -60 24 -59 17 1 18 2 6 6 -10 2 -18 11 -18 19 0 22 29 74 41
74 6 0 7 4 4 10 -7 11 61 114 113 172 50 56 29 47 -28 -12z"/>
<path d="M2576 1830 c-44 -28 -49 -29 -69 -15 -13 9 -40 14 -67 13 l-45 -1 45
-4 c64 -6 70 -14 63 -88 -5 -58 -4 -64 16 -75 12 -6 30 -9 39 -7 12 3 11 5 -5
6 -77 4 -26 134 72 185 17 9 23 16 14 16 -8 0 -36 -14 -63 -30z"/>
<path d="M2032 1825 c-76 -23 -141 -75 -173 -137 -25 -49 -24 -74 6 -103 19
-20 33 -25 72 -24 l48 2 -49 6 c-48 7 -76 29 -76 58 0 52 73 138 146 172 61
29 138 28 158 -1 9 -12 16 -17 16 -10 0 6 -9 21 -20 32 -23 23 -65 25 -128 5z"/>
<path d="M2321 1786 c-39 -42 -26 -68 46 -91 34 -11 68 -26 74 -32 19 -19 -7
-59 -55 -84 -36 -18 -37 -20 -11 -14 41 8 78 37 90 69 13 37 -3 59 -51 70 -92
20 -111 41 -74 82 13 13 19 24 13 24 -5 0 -20 -11 -32 -24z"/>
<path d="M2064 1755 c1 -15 8 -20 29 -21 24 -1 24 -1 3 3 -14 2 -27 12 -29 21
-3 12 -4 11 -3 -3z"/>
<path d="M2063 1701 c-81 -10 -77 -24 6 -17 97 10 92 -5 -35 -92 -10 -7 -2 -4
19 7 21 12 40 21 43 21 2 0 -7 -22 -21 -50 -31 -60 -33 -78 -3 -30 88 145 92
150 123 151 27 1 26 2 -10 10 -45 9 -49 9 -122 0z"/>
<path d="M2589 1673 c-13 -16 -12 -17 4 -4 9 7 17 15 17 17 0 8 -8 3 -21 -13z"/>
<path d="M2187 1663 c-15 -14 -6 -61 16 -81 29 -27 52 -29 42 -4 -5 9 -10 32
-13 50 -2 18 -8 35 -13 38 -12 7 -10 -14 5 -58 8 -21 10 -38 5 -38 -17 0 -41
50 -37 75 6 27 5 29 -5 18z"/>
<path d="M2264 1552 c5 -8 76 -4 76 4 0 2 -18 4 -41 4 -22 0 -38 -4 -35 -8z"/>
<path d="M4408 1016 c-22 -17 -23 -34 -2 -32 22 2 150 -284 132 -295 -7 -4 -9
-11 -5 -15 9 -9 88 26 81 37 -2 4 -10 6 -18 3 -8 -3 -36 48 -86 156 -40 88
-75 160 -79 160 -3 0 -14 -7 -23 -14z"/>
<path d="M279 937 c-68 -46 -101 -126 -80 -197 23 -77 83 -122 184 -138 l56
-9 20 49 c12 28 26 48 35 48 32 0 14 18 -44 43 -41 17 -60 22 -60 13 0 -7 11
-18 25 -24 30 -14 30 -18 5 -59 -14 -23 -27 -33 -45 -33 -63 0 -123 49 -139
112 -18 75 46 179 119 192 50 10 124 -26 146 -71 l16 -32 12 25 c15 34 3 49
-64 80 -67 32 -140 32 -186 1z"/>
<path d="M4322 820 c-56 -34 -68 -103 -29 -161 48 -71 133 -74 176 -7 26 42
18 49 -17 15 -38 -36 -84 -36 -118 0 l-25 27 68 34 c37 19 70 36 71 37 11 10
-13 47 -38 60 -38 20 -48 19 -88 -5z m78 -25 c15 -18 11 -24 -47 -55 -47 -26
-58 -23 -49 14 13 51 68 75 96 41z"/>
<path d="M4115 788 c-4 -10 -5 -25 -2 -33 4 -8 2 -17 -3 -20 -15 -9 -12 -28 3
-22 10 4 21 -15 37 -59 26 -75 54 -114 80 -114 23 0 78 45 68 56 -5 4 -16 0
-26 -9 -24 -22 -35 -21 -54 1 -19 22 -60 131 -53 142 3 5 19 11 35 15 29 6 37
15 24 27 -3 4 -21 0 -40 -8 -19 -8 -34 -11 -34 -6 0 4 -6 17 -14 28 -14 18
-15 18 -21 2z"/>
<path d="M560 741 c0 -5 5 -11 12 -13 8 -3 3 -29 -17 -86 -19 -56 -33 -81 -42
-78 -7 3 -15 1 -17 -3 -6 -9 69 -41 94 -41 10 0 7 6 -8 18 l-23 18 21 56 c15
37 30 59 46 67 36 16 71 13 78 -6 6 -15 8 -15 16 -3 26 41 -14 61 -74 36 -20
-8 -36 -13 -36 -11 0 2 4 15 10 29 9 25 8 26 -25 26 -19 0 -35 -4 -35 -9z"/>
<path d="M3715 736 c-40 -13 -40 -13 -14 -24 20 -8 28 -21 38 -67 7 -31 11
-58 9 -60 -6 -6 -154 -45 -170 -45 -20 0 -48 122 -30 128 16 5 15 22 0 22 -7
0 -30 -5 -50 -11 -39 -10 -52 -29 -20 -29 15 0 25 -25 55 -142 33 -131 35
-142 19 -154 -29 -21 -10 -23 48 -4 52 17 56 22 21 24 -9 1 -21 26 -32 68
l-17 68 42 11 c22 6 63 17 90 25 58 16 60 15 78 -65 10 -47 10 -55 -5 -66 -26
-19 -10 -24 40 -11 46 12 72 35 36 32 -15 -1 -24 23 -55 142 -30 118 -34 144
-22 149 20 7 17 23 -3 22 -10 0 -36 -6 -58 -13z"/>
<path d="M3948 684 c-94 -40 -84 -193 14 -218 46 -11 84 -1 113 30 29 31 35
64 23 114 -19 73 -81 104 -150 74z m73 -24 c46 -25 65 -122 30 -154 -31 -28
-81 -24 -107 9 -66 82 -9 190 77 145z"/>
<path d="M753 673 c-28 -11 -11 -21 32 -21 57 1 69 -10 61 -56 l-7 -36 -68 6
c-64 6 -70 5 -81 -16 -26 -49 14 -97 75 -87 24 4 34 1 43 -14 13 -20 72 -27
72 -9 0 6 -6 10 -14 10 -26 0 -26 16 -1 94 26 83 24 105 -15 126 -19 10 -75
12 -97 3z m58 -131 c12 -5 14 -13 9 -28 -10 -26 -53 -39 -80 -24 -19 10 -27
40 -13 53 8 9 63 8 84 -1z"/>
<path d="M1383 656 c15 -12 17 -22 12 -58 -10 -63 -16 -71 -49 -58 -65 24
-125 -1 -152 -66 -23 -54 -18 -92 16 -126 28 -28 36 -30 80 -26 35 4 50 1 54
-9 6 -15 66 -18 66 -3 0 6 -7 10 -15 10 -21 0 -19 27 15 183 17 76 30 144 30
152 0 11 -11 15 -37 15 -35 -1 -36 -2 -20 -14z m-55 -137 c40 -14 45 -32 29
-104 -12 -51 -17 -60 -42 -66 -32 -9 -79 10 -89 36 -17 46 8 119 47 135 12 5
22 9 23 9 1 1 15 -4 32 -10z"/>
<path d="M950 611 c0 -5 5 -11 11 -13 8 -3 8 -15 1 -43 -6 -22 -16 -59 -22
-82 -6 -26 -17 -43 -25 -43 -30 0 -14 -16 27 -27 45 -12 64 -8 36 8 -15 8 -15
14 2 78 9 38 21 74 24 80 10 16 68 14 91 -3 19 -14 19 -15 0 -91 -14 -58 -24
-79 -39 -85 -23 -9 -24 -8 42 -29 33 -10 41 -4 21 16 -9 9 -8 27 5 73 34 121
21 150 -66 150 -26 0 -48 5 -48 10 0 6 -13 10 -30 10 -16 0 -30 -4 -30 -9z"/>
<path d="M1684 586 c-37 -16 -58 -64 -45 -99 9 -23 40 -53 115 -110 40 -31 47
-64 18 -90 -43 -39 -142 -4 -142 49 0 35 -16 29 -24 -8 -8 -39 14 -62 75 -78
78 -21 149 18 149 83 0 39 -24 72 -80 106 -27 17 -57 42 -66 56 -15 23 -15 27
0 50 31 47 126 25 126 -28 0 -9 5 -17 10 -17 6 0 10 6 10 13 0 6 3 22 6 33 5
18 -1 24 -42 38 -57 19 -69 19 -110 2z"/>
<path d="M2792 548 c2 -13 10 -23 18 -23 8 0 16 10 18 23 3 17 -2 22 -18 22
-16 0 -21 -5 -18 -22z"/>
<path d="M3185 496 c-35 -15 -60 -42 -47 -50 6 -3 15 1 22 8 6 8 25 18 42 22
37 8 58 -13 58 -57 0 -23 -5 -27 -37 -32 -71 -12 -99 -49 -73 -98 14 -25 70
-25 101 0 19 16 25 16 37 5 18 -18 25 -18 53 6 l24 19 -27 1 c-25 0 -27 4 -38
73 -19 114 -42 135 -115 103z m85 -145 c0 -22 -7 -32 -32 -44 -34 -17 -53 -14
-62 10 -8 21 1 33 38 49 46 20 56 17 56 -15z"/>
<path d="M3030 474 c-8 -1 -41 -6 -72 -9 -48 -5 -58 -10 -58 -26 0 -10 5 -19
10 -19 6 0 10 4 10 10 0 10 60 24 84 18 12 -2 5 -23 -39 -102 -30 -54 -53
-101 -51 -105 3 -4 43 -2 89 3 78 8 86 11 90 33 5 26 -1 29 -17 8 -6 -8 -35
-17 -65 -21 l-53 -7 12 24 c7 13 33 59 56 101 56 98 56 104 4 92z"/>
<path d="M2800 443 c-32 -14 -33 -16 -14 -23 18 -7 22 -20 28 -87 5 -67 4 -80
-11 -90 -25 -19 -13 -23 42 -14 39 7 45 10 29 16 -19 6 -22 18 -30 110 l-9
103 -35 -15z"/>
<path d="M1924 431 c-32 -19 -54 -64 -54 -108 0 -57 48 -103 106 -103 23 0 84
25 84 35 0 2 -24 1 -53 -2 -50 -5 -55 -3 -75 22 -43 54 -20 135 42 151 26 6
66 -10 66 -27 0 -6 5 -7 10 -4 16 10 12 42 -6 49 -31 12 -90 6 -120 -13z"/>
<path d="M2683 418 l-33 -33 0 29 c0 26 -2 28 -27 21 -33 -8 -54 -25 -31 -25
20 0 28 -29 28 -112 0 -54 -3 -68 -15 -68 -8 0 -15 -4 -15 -10 0 -12 66 -12
95 -1 20 8 20 8 -1 15 -23 7 -34 41 -34 102 0 43 42 78 83 70 25 -5 28 -3 25
17 -5 34 -38 32 -75 -5z"/>
<path d="M2142 425 c-18 -8 -31 -19 -27 -25 4 -7 13 -7 26 1 11 5 34 9 52 7
30 -3 32 -6 35 -45 l3 -43 -45 0 c-58 0 -76 -7 -87 -38 -22 -57 52 -96 109
-56 19 13 22 13 22 0 0 -21 35 -29 62 -15 l23 13 -25 6 c-24 6 -25 8 -21 87 3
72 1 83 -18 102 -24 24 -62 26 -109 6z m86 -142 c-2 -19 -12 -32 -32 -42 -36
-17 -61 -5 -61 30 0 20 6 25 35 30 61 11 62 11 58 -18z"/>
<path d="M2348 428 c-30 -10 -38 -28 -13 -28 12 0 15 -16 15 -80 0 -67 3 -83
20 -100 24 -24 51 -25 91 -5 27 14 31 14 45 0 18 -18 19 -18 47 -4 l21 12 -22
8 c-21 8 -22 14 -22 109 l0 100 -27 -6 c-16 -4 -31 -9 -35 -11 -13 -7 -9 -23
6 -23 9 0 15 -21 20 -67 6 -62 5 -69 -15 -85 -25 -21 -74 -24 -86 -5 -4 6 -10
53 -13 103 l-5 91 -27 -9z"/>
</g>
</svg>
